<svg width="18" height="18" viewBox="0 0 18 18" fill="none" xmlns="http://www.w3.org/2000/svg">
<path d="M8.16668 15.5C9.79374 15.4997 11.3739 14.955 12.6556 13.9527L16.6853 17.9824L17.9814 16.6862L13.9518 12.6565C14.9546 11.3747 15.4996 9.79419 15.5 8.16671C15.5 4.12329 12.2101 0.833374 8.16668 0.833374C4.12326 0.833374 0.833344 4.12329 0.833344 8.16671C0.833344 12.2101 4.12326 15.5 8.16668 15.5ZM8.16668 2.66671C11.1999 2.66671 13.6667 5.13346 13.6667 8.16671C13.6667 11.2 11.1999 13.6667 8.16668 13.6667C5.13343 13.6667 2.66668 11.2 2.66668 8.16671C2.66668 5.13346 5.13343 2.66671 8.16668 2.66671Z" fill="white"/>
</svg>
