<svg width="59" height="30" viewBox="0 0 59 30" fill="none" xmlns="http://www.w3.org/2000/svg">
<path d="M4.804 17.184V13.872H7.708C8.364 13.872 8.86 13.712 9.196 13.392C9.548 13.072 9.724 12.648 9.724 12.12C9.724 11.592 9.548 11.168 9.196 10.848C8.86 10.528 8.364 10.368 7.708 10.368H4.804V6.912H8.476C9.66 6.912 10.7 7.128 11.596 7.56C12.492 7.992 13.196 8.592 13.708 9.36C14.22 10.128 14.476 11.024 14.476 12.048C14.476 13.072 14.212 13.968 13.684 14.736C13.172 15.504 12.452 16.104 11.524 16.536C10.596 16.968 9.5 17.184 8.236 17.184H4.804ZM0.916 24V6.912H5.716V24H0.916ZM10.132 24L5.476 16.704L9.796 15.768L15.58 24H10.132ZM16.7993 24V12.192H21.5033V24H16.7993ZM19.1513 11.088C18.4633 11.088 17.8873 10.856 17.4233 10.392C16.9753 9.912 16.7513 9.328 16.7513 8.64C16.7513 7.952 16.9753 7.376 17.4233 6.912C17.8873 6.432 18.4633 6.192 19.1513 6.192C19.8553 6.192 20.4313 6.432 20.8793 6.912C21.3273 7.376 21.5513 7.952 21.5513 8.64C21.5513 9.328 21.3273 9.912 20.8793 10.392C20.4313 10.856 19.8553 11.088 19.1513 11.088ZM25.1294 24V12.192C25.1294 11.088 25.3534 10.104 25.8014 9.24C26.2494 8.36 26.9054 7.664 27.7694 7.152C28.6334 6.64 29.6814 6.384 30.9134 6.384C32.1454 6.384 33.1934 6.624 34.0574 7.104C34.9214 7.584 35.5774 8.176 36.0254 8.88C36.4734 9.584 36.6974 10.288 36.6974 10.992L32.9534 11.736C32.9534 11.272 32.8094 10.912 32.5214 10.656C32.2494 10.4 31.8734 10.272 31.3934 10.272C30.9134 10.272 30.5294 10.4 30.2414 10.656C29.9694 10.912 29.8334 11.272 29.8334 11.736V24H25.1294ZM22.7294 16.032V12.192H40.8974V16.032H22.7294ZM32.9534 24V11.736C32.9534 10.712 33.1774 9.776 33.6254 8.928C34.0734 8.08 34.7214 7.408 35.5694 6.912C36.4174 6.4 37.4414 6.144 38.6414 6.144C39.5374 6.144 40.3294 6.288 41.0174 6.576C41.7214 6.864 42.3054 7.248 42.7694 7.728L39.8654 10.632C39.7534 10.504 39.6094 10.416 39.4334 10.368C39.2574 10.304 39.0734 10.272 38.8814 10.272C38.5134 10.272 38.2174 10.384 37.9934 10.608C37.7694 10.832 37.6574 11.128 37.6574 11.496V24H32.9534ZM46.0371 24L41.3811 12.192H46.3731L49.1091 22.248H47.0451L49.7331 12.192H54.7011L50.0691 24H46.0371ZM43.4691 29.04L46.9011 21.288L50.0691 24L48.0771 29.04H43.4691Z" fill="white"/>
</svg>
