<svg width="114" height="28" viewBox="0 0 114 28" fill="none" xmlns="http://www.w3.org/2000/svg">
<path d="M15.5557 5.14958C15.7645 5.24463 15.8877 5.40611 15.9258 5.63396C16.0449 6.08184 16.0925 6.53749 16.0684 7.00115C17.3547 6.9825 18.6373 7.00116 19.9151 7.05779C19.9676 7.14516 19.9956 7.24052 20 7.34294C19.719 8.84699 19.3484 10.3285 18.8887 11.7873C18.1243 13.5202 16.8807 14.7833 15.1572 15.5763C14.3377 15.9255 13.5013 16.2298 12.6494 16.4885C12.3992 16.9795 12.0863 17.426 11.71 17.8273C11.5385 18.6714 11.8513 19.2512 12.6494 19.5656C13.1378 19.7221 13.6131 19.9115 14.0742 20.1349C14.1147 20.2064 14.1624 20.2727 14.2168 20.3342C14.2692 20.8893 14.2506 21.4409 14.1602 21.9875C14.1087 22.0559 14.0415 22.1026 13.96 22.1291C11.282 22.1671 8.60375 22.1671 5.9258 22.1291C5.76472 22.0816 5.65979 21.9777 5.61232 21.8166C5.60281 21.5887 5.59352 21.3599 5.584 21.132C5.57782 20.8599 5.60678 20.5937 5.66994 20.3342C5.73632 20.2678 5.80278 20.2013 5.86916 20.1349C6.48765 19.9543 7.07675 19.7078 7.63576 19.3947C8.08209 18.9688 8.26225 18.4461 8.17678 17.8273C7.82907 17.4081 7.51535 16.9618 7.23635 16.4885C5.68799 16.056 4.28285 15.353 3.02053 14.3801C2.11829 13.6102 1.46297 12.6701 1.05471 11.5597C0.609652 10.2069 0.257691 8.82989 1.89876e-05 7.42888C-0.000978168 7.29334 0.0373021 7.16916 0.114277 7.05779C1.46222 7.00083 2.81116 6.98217 4.16018 7.00115C4.15072 6.50699 4.16001 6.01313 4.1885 5.5197C4.24651 5.31955 4.36982 5.1869 4.55861 5.12126C8.22434 5.11177 11.8901 5.1211 15.5557 5.14958ZM11.8526 6.65935C10.5446 8.262 9.22371 9.85728 7.89162 11.4455C7.58314 11.8014 7.30778 12.1814 7.06545 12.5851C7.09262 12.6409 7.13088 12.6885 7.17971 12.7277C7.95752 12.702 8.73613 12.702 9.51564 12.7277C9.54539 12.7597 9.565 12.798 9.57326 12.842C9.00655 14.1525 8.60699 15.5107 8.376 16.9162C8.45423 16.9251 8.53084 16.9148 8.60451 16.8869C8.93794 16.5326 9.25105 16.1625 9.54396 15.7765C10.7184 14.207 11.9347 12.6677 13.1914 11.1603C13.3064 11.0312 13.3542 10.8795 13.334 10.7052C12.5566 10.6998 11.7771 10.6802 10.9971 10.6476C10.9726 10.6026 10.9538 10.5547 10.9404 10.5051C11.3073 9.46155 11.6397 8.40738 11.9375 7.34294C11.9953 7.11849 12.0243 6.89062 12.0235 6.65935H11.8526ZM2.22268 8.88201C2.32805 9.37941 2.45132 9.87351 2.59279 10.3635C3.06345 11.9066 4.00356 13.0652 5.4131 13.839C4.77874 12.2677 4.41846 10.6152 4.33107 8.88201H2.22268ZM15.8975 8.88201C15.7471 10.5847 15.3297 12.218 14.6446 13.7814C14.6635 13.8004 14.6822 13.8201 14.7012 13.839C15.1198 13.5918 15.5185 13.3163 15.8975 13.0129C17.0507 11.8822 17.6967 10.5051 17.835 8.88201H15.8975Z" fill="white"/>
<path d="M28.416 24V6.912H31.896L38.256 16.224H36.744L43.08 6.912H46.56V24H41.808V14.784L42.504 14.976L39.024 19.968H35.952L32.496 14.976L33.168 14.784V24H28.416ZM49.3926 24V6.912H54.1926V24H49.3926ZM57.0332 24V6.912H60.3932L61.8332 10.512V24H57.0332ZM68.7932 24L58.8812 11.544L60.3932 6.912L70.3052 19.368L68.7932 24ZM68.7932 24L67.5932 20.208V6.912H72.3932V24H68.7932ZM83.6447 24.288C82.3167 24.288 81.0847 24.072 79.9487 23.64C78.8287 23.192 77.8447 22.568 76.9967 21.768C76.1647 20.968 75.5167 20.032 75.0527 18.96C74.5887 17.888 74.3567 16.72 74.3567 15.456C74.3567 14.176 74.5967 13 75.0767 11.928C75.5727 10.856 76.2527 9.928 77.1167 9.144C77.9967 8.344 79.0127 7.728 80.1647 7.296C81.3167 6.848 82.5487 6.624 83.8607 6.624C85.4447 6.624 86.8607 6.896 88.1087 7.44C89.3727 7.984 90.3967 8.72 91.1807 9.648L87.9407 12.888C87.3487 12.2 86.7327 11.688 86.0927 11.352C85.4527 11.016 84.6847 10.848 83.7887 10.848C82.9407 10.848 82.1727 11.04 81.4847 11.424C80.7967 11.792 80.2447 12.32 79.8287 13.008C79.4287 13.696 79.2287 14.504 79.2287 15.432C79.2287 16.36 79.4127 17.176 79.7807 17.88C80.1647 18.568 80.6927 19.104 81.3647 19.488C82.0367 19.872 82.8207 20.064 83.7167 20.064C84.5807 20.064 85.3087 19.896 85.9007 19.56C86.4927 19.224 86.9407 18.744 87.2447 18.12C87.5647 17.496 87.7247 16.76 87.7247 15.912L91.0127 18L83.0687 17.76V13.92H92.5487V14.64C92.5487 16.688 92.1727 18.432 91.4207 19.872C90.6847 21.312 89.6447 22.408 88.3007 23.16C86.9727 23.912 85.4207 24.288 83.6447 24.288ZM103.075 24.336C101.731 24.336 100.491 24.112 99.3549 23.664C98.2349 23.216 97.2509 22.592 96.4029 21.792C95.5709 20.992 94.9229 20.048 94.4589 18.96C93.9949 17.872 93.7629 16.696 93.7629 15.432C93.7629 14.152 93.9869 12.976 94.4349 11.904C94.8989 10.832 95.5469 9.896 96.3789 9.096C97.2109 8.296 98.1869 7.68 99.3069 7.248C100.443 6.8 101.683 6.576 103.027 6.576C104.371 6.576 105.603 6.8 106.723 7.248C107.859 7.68 108.843 8.296 109.675 9.096C110.507 9.896 111.147 10.84 111.595 11.928C112.059 13 112.291 14.176 112.291 15.456C112.291 16.72 112.059 17.896 111.595 18.984C111.147 20.056 110.507 21 109.675 21.816C108.843 22.616 107.867 23.24 106.747 23.688C105.627 24.12 104.403 24.336 103.075 24.336ZM103.027 20.112C103.923 20.112 104.699 19.92 105.355 19.536C106.011 19.152 106.515 18.608 106.867 17.904C107.219 17.2 107.395 16.376 107.395 15.432C107.395 14.728 107.291 14.096 107.083 13.536C106.891 12.96 106.603 12.472 106.219 12.072C105.835 11.656 105.371 11.344 104.827 11.136C104.299 10.912 103.699 10.8 103.027 10.8C102.131 10.8 101.355 10.992 100.699 11.376C100.043 11.744 99.5389 12.28 99.1869 12.984C98.8349 13.672 98.6589 14.488 98.6589 15.432C98.6589 16.152 98.7549 16.8 98.9469 17.376C99.1549 17.952 99.4509 18.448 99.8349 18.864C100.219 19.264 100.675 19.576 101.203 19.8C101.747 20.008 102.355 20.112 103.027 20.112Z" fill="white"/>
</svg>
