<svg width="114" height="28" viewBox="0 0 114 28" fill="none" xmlns="http://www.w3.org/2000/svg">
<path d="M15.5557 5.14958C15.7645 5.24462 15.8877 5.40615 15.9258 5.63396C16.0449 6.0818 16.0925 6.53754 16.0684 7.00115C17.3547 6.9825 18.6373 7.00213 19.9151 7.05876C19.9674 7.14596 19.9956 7.24076 20 7.34294C19.719 8.84705 19.3484 10.3294 18.8887 11.7883C18.1242 13.5211 16.8798 14.7844 15.1563 15.5773C14.3369 15.9263 13.5012 16.2299 12.6494 16.4885C12.3991 16.9797 12.0855 17.4259 11.709 17.8273C11.5375 18.6714 11.8513 19.2512 12.6494 19.5656C13.1379 19.7221 13.613 19.9125 14.0742 20.1359C14.1147 20.2073 14.1624 20.2738 14.2168 20.3351C14.2692 20.8901 14.2496 21.441 14.1592 21.9875C14.1078 22.0557 14.0414 22.1036 13.96 22.1301C11.282 22.1681 8.60381 22.1681 5.9258 22.1301C5.76445 22.0826 5.65981 21.9779 5.61232 21.8166C5.60281 21.5888 5.59351 21.3608 5.584 21.133C5.57779 20.8608 5.60678 20.5947 5.66994 20.3351C5.73637 20.2687 5.80273 20.2023 5.86916 20.1359C6.48766 19.9552 7.07674 19.7078 7.63576 19.3947C8.08194 18.9689 8.26223 18.446 8.17678 17.8273C7.82909 17.4081 7.51534 16.9618 7.23635 16.4885C5.68787 16.056 4.28195 15.3531 3.01955 14.3801C2.11748 13.6102 1.46192 12.67 1.05373 11.5597C0.608697 10.2069 0.257677 8.82986 1.89768e-05 7.42888C-0.000978081 7.29335 0.0373173 7.17012 0.114277 7.05876C1.46205 7.00182 2.81035 6.98218 4.1592 7.00115C4.14975 6.50708 4.16001 6.01304 4.1885 5.5197C4.24655 5.31967 4.36986 5.18686 4.55861 5.12126C8.22432 5.11177 11.8901 5.12109 15.5557 5.14958ZM11.8516 6.65935C10.5437 8.26193 9.22365 9.85735 7.89162 11.4455C7.5832 11.8014 7.30775 12.1815 7.06545 12.5851C7.09262 12.6408 7.13089 12.6885 7.17971 12.7277C7.95751 12.702 8.73613 12.702 9.51564 12.7277C9.54537 12.7597 9.56401 12.798 9.57228 12.842C9.00559 14.1525 8.60699 15.5107 8.376 16.9162C8.45404 16.9251 8.53002 16.9156 8.60353 16.8879C8.93716 16.5334 9.25089 16.1627 9.54396 15.7765C10.7183 14.2071 11.9338 12.6685 13.1904 11.1613C13.3057 11.032 13.3533 10.8798 13.333 10.7052C12.5557 10.6998 11.777 10.6811 10.9971 10.6486C10.9726 10.6035 10.9538 10.5557 10.9404 10.506C11.3073 9.46238 11.6396 8.40754 11.9375 7.34294C11.9953 7.11858 12.0233 6.89052 12.0225 6.65935H11.8516ZM2.22268 8.88201C2.32806 9.37948 2.4513 9.87344 2.59279 10.3635C3.06344 11.9067 4.00349 13.0652 5.4131 13.839C4.77872 12.2676 4.41746 10.6153 4.3301 8.88201H2.22268ZM15.8975 8.88201C15.7471 10.585 15.3289 12.2187 14.6436 13.7824C14.6625 13.8014 14.6822 13.8201 14.7012 13.839C15.1198 13.5918 15.5185 13.3163 15.8975 13.0129C17.0508 11.8822 17.6967 10.5052 17.835 8.88201H15.8975Z" fill="white"/>
<path d="M28.416 24V6.912H31.896L38.256 16.224H36.744L43.08 6.912H46.56V24H41.808V14.784L42.504 14.976L39.024 19.968H35.952L32.496 14.976L33.168 14.784V24H28.416ZM49.3926 24V6.912H54.1926V24H49.3926ZM57.0332 24V6.912H60.3932L61.8332 10.512V24H57.0332ZM68.7932 24L58.8812 11.544L60.3932 6.912L70.3052 19.368L68.7932 24ZM68.7932 24L67.5932 20.208V6.912H72.3932V24H68.7932Z" fill="#FDFEFF"/>
<path d="M83.6447 24.288C82.3167 24.288 81.0847 24.072 79.9487 23.64C78.8287 23.192 77.8447 22.568 76.9967 21.768C76.1647 20.968 75.5167 20.032 75.0527 18.96C74.5887 17.888 74.3567 16.72 74.3567 15.456C74.3567 14.176 74.5967 13 75.0767 11.928C75.5727 10.856 76.2527 9.928 77.1167 9.144C77.9967 8.344 79.0127 7.728 80.1647 7.296C81.3167 6.848 82.5487 6.624 83.8607 6.624C85.4447 6.624 86.8607 6.896 88.1087 7.44C89.3727 7.984 90.3967 8.72 91.1807 9.648L87.9407 12.888C87.3487 12.2 86.7327 11.688 86.0927 11.352C85.4527 11.016 84.6847 10.848 83.7887 10.848C82.9407 10.848 82.1727 11.04 81.4847 11.424C80.7967 11.792 80.2447 12.32 79.8287 13.008C79.4287 13.696 79.2287 14.504 79.2287 15.432C79.2287 16.36 79.4127 17.176 79.7807 17.88C80.1647 18.568 80.6927 19.104 81.3647 19.488C82.0367 19.872 82.8207 20.064 83.7167 20.064C84.5807 20.064 85.3087 19.896 85.9007 19.56C86.4927 19.224 86.9407 18.744 87.2447 18.12C87.5647 17.496 87.7247 16.76 87.7247 15.912L91.0127 18L83.0687 17.76V13.92H92.5487V14.64C92.5487 16.688 92.1727 18.432 91.4207 19.872C90.6847 21.312 89.6447 22.408 88.3007 23.16C86.9727 23.912 85.4207 24.288 83.6447 24.288ZM103.075 24.336C101.731 24.336 100.491 24.112 99.3549 23.664C98.2349 23.216 97.2509 22.592 96.4029 21.792C95.5709 20.992 94.9229 20.048 94.4589 18.96C93.9949 17.872 93.7629 16.696 93.7629 15.432C93.7629 14.152 93.9869 12.976 94.4349 11.904C94.8989 10.832 95.5469 9.896 96.3789 9.096C97.2109 8.296 98.1869 7.68 99.3069 7.248C100.443 6.8 101.683 6.576 103.027 6.576C104.371 6.576 105.603 6.8 106.723 7.248C107.859 7.68 108.843 8.296 109.675 9.096C110.507 9.896 111.147 10.84 111.595 11.928C112.059 13 112.291 14.176 112.291 15.456C112.291 16.72 112.059 17.896 111.595 18.984C111.147 20.056 110.507 21 109.675 21.816C108.843 22.616 107.867 23.24 106.747 23.688C105.627 24.12 104.403 24.336 103.075 24.336ZM103.027 20.112C103.923 20.112 104.699 19.92 105.355 19.536C106.011 19.152 106.515 18.608 106.867 17.904C107.219 17.2 107.395 16.376 107.395 15.432C107.395 14.728 107.291 14.096 107.083 13.536C106.891 12.96 106.603 12.472 106.219 12.072C105.835 11.656 105.371 11.344 104.827 11.136C104.299 10.912 103.699 10.8 103.027 10.8C102.131 10.8 101.355 10.992 100.699 11.376C100.043 11.744 99.5389 12.28 99.1869 12.984C98.8349 13.672 98.6589 14.488 98.6589 15.432C98.6589 16.152 98.7549 16.8 98.9469 17.376C99.1549 17.952 99.4509 18.448 99.8349 18.864C100.219 19.264 100.675 19.576 101.203 19.8C101.747 20.008 102.355 20.112 103.027 20.112Z" fill="#5E28E6"/>
</svg>
