<svg width="18" height="22" viewBox="0 0 18 22" fill="none" xmlns="http://www.w3.org/2000/svg">
<path fill-rule="evenodd" clip-rule="evenodd" d="M11.1734 0.641826C14.7377 0.891464 16.9362 2.85395 17.7692 6.52928C17.9506 10.0866 16.5207 12.5888 13.4797 14.0358C14.9754 16.3514 16.4821 18.6574 17.9999 20.9536C16.4785 21.0514 14.9411 21.0841 13.3874 21.0517C11.0934 17.5298 8.78721 14.0137 6.46871 10.5033C7.88317 10.4706 9.29772 10.4379 10.7122 10.4052C13.1777 9.88474 13.9618 8.39649 13.0645 5.94054C12.4335 5.12728 11.6186 4.68573 10.6199 4.61586C7.91343 4.59947 5.20748 4.55041 2.502 4.46867C1.6641 3.25095 0.864572 2.00803 0.103516 0.73995C3.7778 0.641963 7.46777 0.609258 11.1734 0.641826Z" fill="white"/>
<path fill-rule="evenodd" clip-rule="evenodd" d="M0.103664 12.8093C1.90963 15.5061 3.69308 18.2209 5.45412 20.9536C3.6559 21.0515 1.84164 21.0841 0.0114145 21.0518C-0.01912 18.2874 0.011599 15.5399 0.103664 12.8093Z" fill="#00D4FF"/>
</svg>
