<svg width="232" height="43" viewBox="0 0 232 43" fill="none" xmlns="http://www.w3.org/2000/svg">
<path fill-rule="evenodd" clip-rule="evenodd" d="M8.5 17C8.59138 17 8.68282 17 8.77419 17C8.77419 17.2822 8.77419 17.5644 8.77419 17.8466C8.73745 18.0723 8.78317 18.2604 8.91129 18.411C8.91129 18.5051 8.91129 18.5992 8.91129 18.6933C8.88778 18.8332 8.9335 18.9272 9.04839 18.9755C9.04839 19.1636 9.04839 19.3517 9.04839 19.5399C9.02488 19.6798 9.0706 19.7739 9.18548 19.8221C9.18548 19.9161 9.18548 20.0102 9.18548 20.1043C9.16197 20.2442 9.20769 20.3383 9.32258 20.3865C9.32258 20.4805 9.32258 20.5747 9.32258 20.6687C9.29907 20.8086 9.34479 20.9027 9.45968 20.9509C9.45968 20.998 9.45968 21.045 9.45968 21.092C9.43617 21.2319 9.48189 21.326 9.59677 21.3742C9.98579 22.7868 10.6256 24.0567 11.5161 25.184C11.5161 25.2781 11.5619 25.3252 11.6532 25.3252C12.737 26.674 14.1079 27.5676 15.7661 28.0061C15.8129 28.1244 15.9044 28.1714 16.0403 28.1472C16.3564 28.2167 16.6763 28.2638 17 28.2883C17 28.3824 17 28.4765 17 28.5706C16.6763 28.5951 16.3564 28.6422 16.0403 28.7117C15.9044 28.6875 15.8129 28.7345 15.7661 28.8528C15.4831 28.8791 15.2089 28.9497 14.9435 29.0644C14.1406 29.4062 13.4094 29.8531 12.75 30.4049C12.6586 30.4049 12.6129 30.452 12.6129 30.546C12.2473 30.8282 11.9274 31.1575 11.6532 31.5337C11.5619 31.5337 11.5161 31.5808 11.5161 31.6748C10.7092 32.6768 10.1152 33.8056 9.73387 35.0613C9.61898 35.1095 9.57326 35.2037 9.59677 35.3436C9.59677 35.3906 9.59677 35.4376 9.59677 35.4847C9.48189 35.5329 9.43617 35.627 9.45968 35.7669C9.38592 35.995 9.3402 36.2303 9.32258 36.4724C9.20769 36.5206 9.16197 36.6147 9.18548 36.7546C9.18548 36.8486 9.18548 36.9428 9.18548 37.0368C9.0706 37.085 9.02488 37.1791 9.04839 37.319C9.04839 37.4601 9.04839 37.6012 9.04839 37.7423C8.92027 37.893 8.87455 38.0811 8.91129 38.3067C8.91129 38.4008 8.91129 38.4949 8.91129 38.589C8.78317 38.7396 8.73745 38.9277 8.77419 39.1534C8.77419 39.3885 8.77419 39.6237 8.77419 39.8589C8.68282 39.906 8.59138 39.9529 8.5 40C8.5 39.7178 8.5 39.4356 8.5 39.1534C8.53674 38.9277 8.49102 38.7396 8.3629 38.589C8.3629 38.5419 8.3629 38.4949 8.3629 38.4479C8.39965 38.2222 8.35392 38.0341 8.22581 37.8834C8.22581 37.6953 8.22581 37.5072 8.22581 37.319C8.24932 37.1791 8.2036 37.085 8.08871 37.0368C8.08871 36.9428 8.08871 36.8486 8.08871 36.7546C8.11222 36.6147 8.0665 36.5206 7.95161 36.4724C7.55383 34.5719 6.75407 32.8786 5.55242 31.3926C5.27322 31.0814 4.97613 30.7992 4.66129 30.546C4.66129 30.452 4.61557 30.4049 4.52419 30.4049C4.28729 30.1614 4.0131 29.9733 3.70161 29.8405C3.70161 29.7464 3.65591 29.6994 3.56452 29.6994C2.92342 29.3069 2.23793 29.0247 1.50806 28.8528C1.46122 28.7345 1.36982 28.6875 1.23387 28.7117C1.09677 28.7117 0.959677 28.7117 0.822581 28.7117C0.775735 28.5934 0.684332 28.5464 0.548387 28.5706C0.365589 28.5706 0.182798 28.5706 0 28.5706C0 28.4765 0 28.3824 0 28.2883C0.182798 28.2883 0.365589 28.2883 0.548387 28.2883C0.684332 28.3125 0.775735 28.2655 0.822581 28.1472C0.959677 28.1472 1.09677 28.1472 1.23387 28.1472C1.36982 28.1714 1.46122 28.1244 1.50806 28.0061C2.62881 27.7116 3.63419 27.1942 4.52419 26.454C4.61557 26.454 4.66129 26.4069 4.66129 26.3129C4.97613 26.0597 5.27322 25.7775 5.55242 25.4663C5.82661 25.09 6.10081 24.7137 6.375 24.3374C6.56872 23.8914 6.79719 23.4681 7.06048 23.0675C7.28052 22.5052 7.48617 21.9408 7.67742 21.3742C7.79231 21.326 7.83803 21.2319 7.81452 21.092C7.83213 20.8499 7.87785 20.6147 7.95161 20.3865C8.0665 20.3383 8.11222 20.2442 8.08871 20.1043C8.13443 19.728 8.18008 19.3517 8.22581 18.9755C8.34974 18.8754 8.39546 18.7343 8.3629 18.5521C8.3629 18.411 8.3629 18.2699 8.3629 18.1288C8.49102 17.9782 8.53674 17.7901 8.5 17.5644C8.5 17.3763 8.5 17.1881 8.5 17Z" fill="#22C55E"/>
<path fill-rule="evenodd" clip-rule="evenodd" d="M14.0836 17.0635C14.1305 17.0635 14.1774 17.0635 14.2243 17.0635C14.2243 17.1573 14.2243 17.2512 14.2243 17.345C14.2002 17.4846 14.2472 17.5784 14.3651 17.6265C14.4399 18.0118 14.5572 18.3871 14.717 18.7526C14.8641 18.8756 14.9814 19.0163 15.0689 19.1749C15.0689 19.2687 15.1159 19.3157 15.2097 19.3157C15.2097 19.4095 15.2566 19.4564 15.3504 19.4564C15.6264 19.7115 15.9549 19.8522 16.3358 19.8787C16.2888 19.9725 16.2419 20.0664 16.195 20.1602C15.9439 20.2155 15.7093 20.3093 15.4912 20.4417C15.3974 20.4417 15.3504 20.4887 15.3504 20.5825C15.2155 20.6463 15.0983 20.7401 14.9985 20.864C14.7753 21.1696 14.5876 21.498 14.4355 21.8494C14.3675 21.9828 14.3441 22.1236 14.3651 22.2716C14.2472 22.3197 14.2002 22.4136 14.2243 22.5532C14.2243 22.6939 14.2243 22.8347 14.2243 22.9754C14.1774 22.9754 14.1305 22.9754 14.0836 22.9754C14.1213 22.7504 14.0744 22.5627 13.9428 22.4124C13.9428 22.3655 13.9428 22.3186 13.9428 22.2716C13.967 22.1321 13.92 22.0382 13.8021 21.9901C13.7254 21.6955 13.6081 21.414 13.4502 21.1456C13.1921 20.8875 12.9341 20.6295 12.676 20.3714C12.5007 20.26 12.313 20.1896 12.1129 20.1602C12.066 20.0664 12.0191 19.9725 11.9722 19.8787C12.7486 19.6653 13.3117 19.1961 13.6613 18.4711C13.7793 18.423 13.8262 18.3291 13.8021 18.1896C13.8021 18.1426 13.8021 18.0957 13.8021 18.0488C13.92 18.0007 13.967 17.9069 13.9428 17.7673C13.9609 17.5257 14.0079 17.2911 14.0836 17.0635Z" fill="#22C55E"/>
<path fill-rule="evenodd" clip-rule="evenodd" d="M18.4478 19.8789C18.4862 20.5422 18.7677 21.0818 19.2924 21.4977C19.376 21.563 19.4699 21.5865 19.5739 21.568C19.6208 21.6619 19.6677 21.7557 19.7146 21.8496C18.936 22.0658 18.5137 22.5819 18.4478 23.3979C18.354 23.351 18.2601 23.3041 18.1663 23.2572C18.1663 23.2102 18.1663 23.1634 18.1663 23.1164C18.1904 22.9768 18.1435 22.883 18.0255 22.8349C18.0439 22.7309 18.0205 22.6371 17.9551 22.5534C17.6938 22.1733 17.3419 21.9387 16.8994 21.8496C16.9464 21.7557 16.9932 21.6619 17.0402 21.568C17.1963 21.56 17.337 21.5131 17.4625 21.4273C17.5563 21.4273 17.6032 21.3803 17.6032 21.2865C17.9515 20.949 18.1392 20.5268 18.1663 20.0197C18.2601 19.9727 18.354 19.9259 18.4478 19.8789Z" fill="#22C55E"/>
<path fill-rule="evenodd" clip-rule="evenodd" d="M55.5484 39C55.5868 39.6633 55.8683 40.2029 56.3929 40.6188C56.4766 40.6841 56.5704 40.7076 56.6745 40.6891C56.7214 40.783 56.7683 40.8768 56.8152 40.9707C56.0366 41.1869 55.6143 41.703 55.5484 42.519C55.4546 42.4721 55.3607 42.4252 55.2669 42.3783C55.2669 42.3313 55.2669 42.2845 55.2669 42.2375C55.291 42.0979 55.244 42.0041 55.1261 41.956C55.1445 41.852 55.1211 41.7581 55.0557 41.6745C54.7944 41.2944 54.4425 41.0598 54 40.9707C54.0469 40.8768 54.0938 40.783 54.1408 40.6891C54.2969 40.6811 54.4376 40.6342 54.563 40.5484C54.6569 40.5484 54.7038 40.5014 54.7038 40.4076C55.0521 40.0701 55.2398 39.6479 55.2669 39.1408C55.3607 39.0938 55.4546 39.0469 55.5484 39Z" fill="#22C55E"/>
<path fill-rule="evenodd" clip-rule="evenodd" d="M56.5484 20C56.5868 20.6633 56.8683 21.2029 57.3929 21.6188C57.4766 21.6841 57.5704 21.7076 57.6745 21.6891C57.7214 21.783 57.7683 21.8768 57.8152 21.9707C57.0366 22.1869 56.6143 22.703 56.5484 23.519C56.4546 23.4721 56.3607 23.4252 56.2669 23.3783C56.2669 23.3313 56.2669 23.2845 56.2669 23.2375C56.291 23.0979 56.244 23.0041 56.1261 22.956C56.1445 22.852 56.1211 22.7581 56.0557 22.6745C55.7944 22.2944 55.4425 22.0598 55 21.9707C55.0469 21.8768 55.0938 21.783 55.1408 21.6891C55.2969 21.6811 55.4376 21.6342 55.563 21.5484C55.6569 21.5484 55.7038 21.5014 55.7038 21.4076C56.0521 21.0701 56.2398 20.6479 56.2669 20.1408C56.3607 20.0938 56.4546 20.0469 56.5484 20Z" fill="#22C55E"/>
<path fill-rule="evenodd" clip-rule="evenodd" d="M183.548 8C183.587 8.66327 183.868 9.20288 184.393 9.61875C184.477 9.68414 184.57 9.70757 184.674 9.68913C184.721 9.78295 184.768 9.87684 184.815 9.97066C184.037 10.1869 183.614 10.703 183.548 11.519C183.455 11.4721 183.361 11.4252 183.267 11.3783C183.267 11.3313 183.267 11.2845 183.267 11.2375C183.291 11.0979 183.244 11.0041 183.126 10.956C183.145 10.852 183.121 10.7581 183.056 10.6745C182.794 10.2944 182.442 10.0598 182 9.97066C182.047 9.87684 182.094 9.78295 182.141 9.68913C182.297 9.68111 182.438 9.63424 182.563 9.54837C182.657 9.54837 182.704 9.50143 182.704 9.40761C183.052 9.07014 183.24 8.64785 183.267 8.14076C183.361 8.09382 183.455 8.04694 183.548 8Z" fill="#22C55E"/>
<path fill-rule="evenodd" clip-rule="evenodd" d="M220.5 0C220.591 0 220.683 0 220.774 0C220.774 0.282209 220.774 0.564417 220.774 0.846626C220.737 1.07226 220.783 1.26039 220.911 1.41104C220.911 1.50511 220.911 1.59918 220.911 1.69325C220.888 1.83317 220.934 1.92724 221.048 1.97546C221.048 2.1636 221.048 2.35171 221.048 2.53988C221.025 2.67978 221.071 2.7739 221.185 2.82209C221.185 2.91613 221.185 3.01025 221.185 3.10429C221.162 3.2442 221.208 3.33832 221.323 3.3865C221.323 3.48055 221.323 3.57467 221.323 3.66871C221.299 3.80862 221.345 3.90273 221.46 3.95092C221.46 3.99798 221.46 4.04497 221.46 4.09202C221.436 4.23193 221.482 4.32605 221.597 4.37423C221.986 5.78676 222.626 7.0567 223.516 8.18405C223.516 8.2781 223.562 8.32515 223.653 8.32515C224.737 9.67397 226.108 10.5676 227.766 11.0061C227.813 11.1244 227.904 11.1714 228.04 11.1472C228.356 11.2167 228.676 11.2638 229 11.2883C229 11.3824 229 11.4765 229 11.5706C228.676 11.5951 228.356 11.6422 228.04 11.7117C227.904 11.6875 227.813 11.7345 227.766 11.8528C227.483 11.8791 227.209 11.9497 226.944 12.0644C226.141 12.4062 225.409 12.8531 224.75 13.4049C224.659 13.4049 224.613 13.452 224.613 13.546C224.247 13.8282 223.927 14.1575 223.653 14.5337C223.562 14.5337 223.516 14.5808 223.516 14.6748C222.709 15.6768 222.115 16.8056 221.734 18.0613C221.619 18.1095 221.573 18.2037 221.597 18.3436C221.597 18.3906 221.597 18.4376 221.597 18.4847C221.482 18.5329 221.436 18.627 221.46 18.7669C221.386 18.995 221.34 19.2303 221.323 19.4724C221.208 19.5206 221.162 19.6147 221.185 19.7546C221.185 19.8486 221.185 19.9428 221.185 20.0368C221.071 20.085 221.025 20.1791 221.048 20.319C221.048 20.4601 221.048 20.6012 221.048 20.7423C220.92 20.893 220.875 21.0811 220.911 21.3067C220.911 21.4008 220.911 21.4949 220.911 21.589C220.783 21.7396 220.737 21.9277 220.774 22.1534C220.774 22.3885 220.774 22.6237 220.774 22.8589C220.683 22.906 220.591 22.9529 220.5 23C220.5 22.7178 220.5 22.4356 220.5 22.1534C220.537 21.9277 220.491 21.7396 220.363 21.589C220.363 21.5419 220.363 21.4949 220.363 21.4479C220.4 21.2222 220.354 21.0341 220.226 20.8834C220.226 20.6953 220.226 20.5072 220.226 20.319C220.249 20.1791 220.204 20.085 220.089 20.0368C220.089 19.9428 220.089 19.8486 220.089 19.7546C220.112 19.6147 220.067 19.5206 219.952 19.4724C219.554 17.5719 218.754 15.8786 217.552 14.3926C217.273 14.0814 216.976 13.7992 216.661 13.546C216.661 13.452 216.616 13.4049 216.524 13.4049C216.287 13.1614 216.013 12.9733 215.702 12.8405C215.702 12.7464 215.656 12.6994 215.565 12.6994C214.923 12.3069 214.238 12.0247 213.508 11.8528C213.461 11.7345 213.37 11.6875 213.234 11.7117C213.097 11.7117 212.96 11.7117 212.823 11.7117C212.776 11.5934 212.684 11.5464 212.548 11.5706C212.366 11.5706 212.183 11.5706 212 11.5706C212 11.4765 212 11.3824 212 11.2883C212.183 11.2883 212.366 11.2883 212.548 11.2883C212.684 11.3125 212.776 11.2655 212.823 11.1472C212.96 11.1472 213.097 11.1472 213.234 11.1472C213.37 11.1714 213.461 11.1244 213.508 11.0061C214.629 10.7116 215.634 10.1942 216.524 9.45399C216.616 9.45399 216.661 9.40693 216.661 9.31288C216.976 9.05974 217.273 8.77753 217.552 8.46626C217.827 8.09 218.101 7.71368 218.375 7.33742C218.569 6.89139 218.797 6.46808 219.06 6.06748C219.281 5.50518 219.486 4.94077 219.677 4.37423C219.792 4.32605 219.838 4.23193 219.815 4.09202C219.832 3.84989 219.878 3.61467 219.952 3.3865C220.067 3.33832 220.112 3.2442 220.089 3.10429C220.134 2.72804 220.18 2.35171 220.226 1.97546C220.35 1.87542 220.395 1.73432 220.363 1.55215C220.363 1.41104 220.363 1.26994 220.363 1.12883C220.491 0.978184 220.537 0.79005 220.5 0.564417C220.5 0.376276 220.5 0.188141 220.5 0Z" fill="#22C55E"/>
<path fill-rule="evenodd" clip-rule="evenodd" d="M194.111 33C194.158 33 194.205 33 194.252 33C194.252 33.0938 194.252 33.1877 194.252 33.2815C194.228 33.4211 194.274 33.5149 194.392 33.563C194.467 33.9483 194.585 34.3237 194.744 34.6891C194.891 34.8121 195.009 34.9528 195.096 35.1114C195.096 35.2052 195.143 35.2522 195.237 35.2522C195.237 35.346 195.284 35.3929 195.378 35.3929C195.654 35.648 195.982 35.7888 196.363 35.8152C196.316 35.909 196.269 36.0029 196.222 36.0967C195.971 36.152 195.737 36.2458 195.519 36.3783C195.425 36.3783 195.378 36.4252 195.378 36.519C195.243 36.5828 195.126 36.6766 195.026 36.8006C194.803 37.1061 194.615 37.4345 194.463 37.7859C194.395 37.9193 194.371 38.0601 194.392 38.2082C194.274 38.2562 194.228 38.3501 194.252 38.4897C194.252 38.6304 194.252 38.7712 194.252 38.912C194.205 38.912 194.158 38.912 194.111 38.912C194.149 38.6869 194.102 38.4992 193.97 38.3489C193.97 38.302 193.97 38.2551 193.97 38.2082C193.994 38.0686 193.947 37.9747 193.829 37.9266C193.753 37.632 193.635 37.3505 193.478 37.0821C193.219 36.824 192.961 36.566 192.703 36.3079C192.528 36.1965 192.34 36.1261 192.14 36.0967C192.093 36.0029 192.046 35.909 192 35.8152C192.776 35.6018 193.339 35.1326 193.689 34.4076C193.807 34.3595 193.854 34.2657 193.829 34.1261C193.829 34.0792 193.829 34.0323 193.829 33.9853C193.947 33.9372 193.994 33.8434 193.97 33.7038C193.988 33.4622 194.035 33.2276 194.111 33Z" fill="#22C55E"/>
<path fill-rule="evenodd" clip-rule="evenodd" d="M230.448 2.87891C230.486 3.54217 230.768 4.08178 231.292 4.49766C231.376 4.56304 231.47 4.58648 231.574 4.56804C231.621 4.66186 231.668 4.75575 231.715 4.84956C230.936 5.06584 230.514 5.58194 230.448 6.39794C230.354 6.35099 230.26 6.30412 230.166 6.25718C230.166 6.21023 230.166 6.16336 230.166 6.11641C230.19 5.97685 230.143 5.88296 230.026 5.83489C230.044 5.73087 230.021 5.63705 229.955 5.55337C229.694 5.17331 229.342 4.93874 228.899 4.84956C228.946 4.75575 228.993 4.66186 229.04 4.56804C229.196 4.56002 229.337 4.51314 229.462 4.42728C229.556 4.42728 229.603 4.38034 229.603 4.28652C229.952 3.94904 230.139 3.52676 230.166 3.01967C230.26 2.97272 230.354 2.92585 230.448 2.87891Z" fill="#22C55E"/>
</svg>
