<?xml version="1.0" standalone="no"?>
<!DOCTYPE svg PUBLIC "-//W3C//DTD SVG 1.1//EN" "http://www.w3.org/Graphics/SVG/1.1/DTD/svg11.dtd">
<svg xmlns="http://www.w3.org/2000/svg">
<metadata>Copyright (C) 2025 by original authors @ fontello.com</metadata>
<defs>
<font id="fontello" horiz-adv-x="1000" >
<font-face font-family="fontello" font-weight="400" font-stretch="normal" units-per-em="1000" ascent="850" descent="-150" />
<missing-glyph horiz-adv-x="1000" />
<glyph glyph-name="calculator" unicode="&#xe800;" d="M250-67h500c22 0 43 9 59 25 16 15 24 37 24 59v666c0 22-8 44-24 59-16 16-37 25-59 25h-500c-22 0-43-9-59-25-16-15-24-37-24-59v-666c0-22 8-44 24-59 16-16 37-25 59-25z m125 125h-83v84h83v-84z m0 167h-83v83h83v-83z m0 167h-83v83h83v-83z m167-334h-84v84h84v-84z m0 167h-84v83h84v-83z m0 167h-84v83h84v-83z m166-334h-83v250h83v-250z m0 334h-83v83h83v-83z m-458 291h500v-125h-500v125z" horiz-adv-x="1000" />

<glyph glyph-name="bets" unicode="&#xe801;" d="M156 641c0 63 50 115 114 115h273c63 0 113-52 113-115v-394c0-63-50-116-113-116h-273c-64 0-114 53-114 116v394z m114 53c-28 0-51-23-51-53v-394c0-30 23-53 51-53h273c27 0 51 23 51 53v394c0 30-24 53-51 53h-273z m429-156c0 17 14 31 32 31h19c52 0 94-42 94-94v-437c0-52-42-94-94-94h-312c-52 0-94 42-94 94v21c0 18 14 32 31 32 17 0 31-14 31-32v-21c0-18 14-32 32-32h312c17 0 31 14 31 32v437c0 17-14 31-31 31h-19c-18 0-32 14-32 32z m-386-188c-18 0-32-14-32-31 0-17 14-31 32-31h187c17 0 31 14 31 31 0 17-14 31-31 31h-187z m-32 94c0 17 14 31 32 31h187c17 0 31-14 31-31 0-17-14-31-31-31h-187c-18 0-32 14-32 31z m32 156c-18 0-32-14-32-31 0-17 14-31 32-31h187c17 0 31 14 31 31 0 17-14 31-31 31h-187z" horiz-adv-x="1000" />

<glyph glyph-name="sort-alt" unicode="&#xe802;" d="M292 17h83v500h125l-167 166-166-166h125v-500z m541 166h-125v500h-83v-500h-125l167-166 166 166z" horiz-adv-x="1000" />

<glyph glyph-name="pie-chart" unicode="&#xe803;" d="M542 765v-373h373c-20 196-177 353-373 373z m207-748c91 68 154 172 166 291h-341l175-291z m-291 333v415c-210-21-375-199-375-415 0-230 187-417 417-417 61 0 122 14 177 40 0 0-219 372-219 377 0 0 0 0 0 0z" horiz-adv-x="1000" />

<glyph glyph-name="crow" unicode="&#xe804;" d="M588 546c0-32-18-60-44-74l87-117c11-14 32-16 46-4l144 133c-11 12-18 28-18 45 0 37 30 66 67 66 37 0 68-29 68-66 0-36-31-65-68-65-2 0-5 0-7 0l-23-211c-2-16-15-28-31-28h-618c-16 0-29 12-31 28l-24 211c-2 0-4 0-6 0-37 0-67 29-67 65 0 37 30 66 67 66 37 0 67-29 67-66 0-17-7-34-19-45l145-133c14-12 35-10 46 4l88 117c-27 14-44 42-44 74 0 47 39 85 87 85 48 0 88-38 88-85z m-385-415c-26 0-47-21-47-47 0-25 21-46 47-46h594c26 0 47 21 47 46 0 26-21 47-47 47h-594z" horiz-adv-x="1000" />

<glyph glyph-name="home" unicode="&#xe805;" d="M521 570c-12 11-30 11-42 0l-250-225c-6-5-10-14-10-23v-191c0-17 14-31 31-31h102c18 0 32 14 32 31v44c0 52 42 94 93 94h46c52 0 94-42 94-94v-44c0-17 14-31 31-31h102c17 0 31 14 31 31v191c0 9-3 18-10 23l-250 225z m-84 47c36 32 90 32 126 0l250-225c20-18 31-43 31-70v-191c0-51-42-93-94-93h-102c-52 0-94 42-94 93v44c0 17-14 31-31 31h-46c-17 0-31-14-31-31v-44c0-51-42-93-94-93h-102c-52 0-94 42-94 93v191c0 27 12 52 31 70l250 225z" horiz-adv-x="1000" />

<glyph glyph-name="live" unicode="&#xe806;" d="M156 600c-69 0-125-56-125-125v-250c0-69 56-125 125-125h688c69 0 125 56 125 125v250c0 69-56 125-125 125h-688z m-62-125c0 35 28 63 62 63h688c34 0 62-28 62-63v-250c0-34-28-62-62-62h-688c-34 0-62 28-62 62v250z m153-44h-59v-175h138v46h-79v129z m174 0h-59v-175h59v175z m235 0l-74-175h-58l-74 175h64l42-102 42 102h58z m172-175v45h-88v23h74v42h-74v21h84v44h-142v-175h146z" horiz-adv-x="1000" />

<glyph glyph-name="star-line" unicode="&#xe807;" d="M457 664c15 40 71 40 86 0l73-192 215-6c40-2 63-54 26-82l-169-124 59-196c7-21-3-40-17-49-14-10-34-12-52-1l-178 115-178-115c-18-11-38-9-52 1-14 9-24 28-17 49l59 196-169 124c-37 28-14 80 26 82l215 6 73 192z m43-63l-61-162c-7-17-24-28-42-29l-176-5 138-103c15-11 22-30 16-49l-49-162 149 96c15 10 35 10 50 0l149-96-49 162c-6 19 1 38 16 49l138 103-176 5c-18 1-35 12-42 29l-61 162z" horiz-adv-x="1000" />

<glyph glyph-name="chat" unicode="&#xe808;" d="M500 850c-276 0-500-179-500-400 0-145 95-276 250-347v-253l267 200c268 7 483 184 483 400 0 221-224 400-500 400z" horiz-adv-x="1000" />

<glyph glyph-name="paper" unicode="&#xe809;" d="M585 700c0 28-23 50-50 50-28 0-50-22-50-50v-325c0-14-11-25-25-25-14 0-25 11-25 25v275c0 28-23 50-50 50-28 0-50-22-50-50v-425c0-2 0-5 0-7l-95 90c-25 24-64 23-88-2-24-25-23-65 2-89l176-167c67-64 157-100 250-100h30c152 0 275 123 275 275v325c0 28-23 50-50 50-28 0-50-22-50-50v-175c0-14-11-25-25-25-14 0-25 11-25 25v275c0 28-23 50-50 50-28 0-50-22-50-50v-275c0-14-11-25-25-25-14 0-25 11-25 25v325z" horiz-adv-x="1042" />

<glyph glyph-name="user" unicode="&#xe80a;" d="M594 262c19 4 37 10 53 18 24 6 48 5 71-2 16-5 31-10 47-16 26-13 52-28 76-44 21-16 41-34 59-52 17-20 33-40 47-61 29-50 46-103 53-159-2-1-3-3-3-4-3-7-4-15-3-23-10-33-32-54-67-63-252 0-504 0-756 0-12 1-24 0-35-3-60-11-103 8-131 58-8 32-7 65 3 97 11 41 29 80 52 116 13 17 27 33 41 50 14 12 28 24 41 37 14 10 28 19 41 29 15 7 30 14 44 22 30 12 61 19 93 23 5-1 11-1 16-2 66-30 136-41 209-33 17 2 34 7 49 12z m-49 584c5-5 12-6 20-6 18-3 36-9 53-16 5-4 11-7 18-8 10-8 21-16 32-23 8-8 17-15 26-22 79-83 99-179 59-287-12-22-27-43-42-64-19-19-39-37-61-52-110-63-216-59-320 12-16 15-32 30-47 46-3 5-7 9-12 13-63 102-62 202 3 302 31 36 68 66 112 88 52 20 105 26 159 17z" horiz-adv-x="1000" />

<glyph glyph-name="menu" unicode="&#xe80b;" d="M105 629h885c19 0 34 15 34 33v83c0 19-15 34-34 34h-885c-18 0-34-15-34-34v-83c0-18 16-33 34-33z m0-334h885c19 0 34 15 34 34v83c0 19-15 33-34 33h-885c-18 0-34-14-34-33v-83c0-19 16-34 34-34z m0-333h885c19 0 34 15 34 34v83c0 18-15 33-34 33h-885c-18 0-34-15-34-33v-83c0-19 16-34 34-34z" horiz-adv-x="1071" />

<glyph glyph-name="star" unicode="&#xe80c;" d="M475 38l-171-94c-26-15-59-4-74 24a59 59 0 0 0-5 36l32 198a59 59 0 0 1-15 51l-138 140a59 59 0 0 0-1 81c9 9 20 15 31 17l191 28a55 55 0 0 1 41 32l85 180c13 28 46 40 73 26 11-6 20-15 25-26l85-180c8-17 24-29 41-32l191-29c30-4 50-33 46-64a58 58 0 0 0-16-33l-138-140a59 59 0 0 1-15-51l32-198c5-31-15-60-45-66-11-2-24 0-34 6l-170 93c-16 9-35 9-51 0z" horiz-adv-x="1000" />

<glyph glyph-name="heart" unicode="&#xe80d;" d="M809 305l-309-332-309 333-1 1-14 15 0 1c-75 96-70 241 14 332 85 90 219 95 309 15l1 0 1 0 1 1c90 79 223 74 308-16 84-91 89-236 14-332l0-1-14-15z" horiz-adv-x="1000" />

<glyph glyph-name="sound" unicode="&#xe80e;" d="M792 722v-483c0-34-12-61-38-83-42-34-111-77-130-85a51 51 0 0 0-67 28c-12 29-23 87 33 124 33 21 56 18 77 13 11 6 13 7 21 12a36 36 0 0 1 18 31v283a16 16 0 0 1-22 15l-291-130a38 38 0 0 1-23-35l0-307c0-31-16-58-40-76-23-18-107-79-140-92-27-11-58 2-70 38-11 33-4 84 37 116 22 17 57 30 83 19 9 5 17 9 23 13 11 8 18 19 18 32l-5 343c0 43 19 70 51 86l403 179c29 13 62-9 62-41z" horiz-adv-x="1000" />

<glyph glyph-name="volumen" unicode="&#xe80f;" d="M367 483l217 194v-654l-217 193-18 134z m-6-133a269 269 0 0 0 23 115 12 12 0 0 1-11 18h-150c-53 1-90-59-90-133 0-74 37-134 90-134h151a12 12 0 0 1 10 19 269 269 0 0 0-23 115m309 363c109 0 197-162 197-363s-88-363-197-363-198 162-198 363 89 363 198 363m44-240a34 34 0 0 1-48 4 35 35 0 0 1-4-49c15-23 23-50 22-78 1-28-7-56-22-79a34 34 0 0 1 4-48c6-6 14-9 22-9 10 0 20 5 26 13a197 197 0 0 1 39 123 195 195 0 0 1-39 123" horiz-adv-x="1000" />

<glyph glyph-name="shared" unicode="&#xe810;" d="M117 363l489 205c48 21 211 90 211 90s76 30 69-43c-2-30-19-134-35-247l-53-335s-4-50-39-58c-36-9-95 30-105 38-9 7-157 103-212 150-15 13-31 38 2 68 76 70 166 158 220 213 25 26 51 86-54 13l-296-203s-33-21-96-2-136 45-136 45-51 32 35 66h0z" horiz-adv-x="1000" />

<glyph glyph-name="baseball" unicode="&#xe811;" d="M439 819c159 9 292-45 399-161-26-20-51-43-74-68-3-2-7-2-10 0-9 11-20 20-32 26-18-8-30-22-33-42 11-13 22-26 33-40-26-49-49-99-66-152-4-1-7-2-11-3-18 3-37 5-56 7-5-18-8-35-9-53 19-9 38-15 58-17-2-28-3-56-3-84 0-40 2-80 5-119-16-9-31-19-44-32 8-14 14-29 18-45 15 1 30 5 43 14 12-18 21-36 28-56 15-20 25-41 32-63-225-109-423-72-595 108-4 5-4 9-2 12 33 20 62 43 88 70 2 3 5 3 7 0 8-12 17-22 30-29 13 8 26 17 38 28 1 5-1 11-3 17-9 14-16 28-23 42 33 58 56 120 70 186 22-4 44-4 66 0 3 13 6 27 7 41 0 6-3 10-7 13-19 3-38 5-57 8 2 63-5 124-20 184 2 3 3 6 4 9 15 5 30 12 44 21-3 17-8 33-14 49-3 3-6 5-9 7-15-7-30-13-46-18-9 29-21 57-35 84 23 15 47 26 74 34 35 10 70 17 105 22z m-242-87c4 0 7-1 9-4 13-24 22-49 30-75-10-9-22-15-35-19-4-21 1-41 14-58 12 0 24 3 35 9 2-1 4-2 5-4 14-49 19-99 16-150-17 5-32 4-47-3-5-18-6-35-4-53 13-6 26-8 40-7-7-53-25-102-56-147-17 10-34 20-52 28-13-11-22-25-28-42 13-13 27-25 44-35 2-3 2-7 0-10-26-25-54-47-84-67-67 96-94 202-81 319 22 132 87 239 194 318z m676-126c3 0 6-1 8-4 95-150 104-307 28-468-34-63-79-117-134-161-24 30-42 64-53 101 1 3 2 6 4 9 12 6 24 12 36 19-2 18-7 35-12 53-14-1-27-4-40-11-1 1-2 2-4 4-8 49-10 100-5 150 14-2 28-2 42 0 7 14 12 29 18 44-1 2-2 5-4 7-11 4-23 8-35 12-1 2-2 5-3 7 12 41 30 79 52 115 12 3 23-1 32-12 6-2 13-2 19 2 8 12 15 25 23 37-11 12-23 23-35 33 20 22 41 43 63 63z" horiz-adv-x="960" />

<glyph glyph-name="boxeo" unicode="&#xe812;" d="M688 805c7-6 16-10 25-12 4 0 7-1 9-4 7-8 15-13 25-17 2 0 4-1 4-4 8-11 18-21 29-29 1-8 5-14 12-17 0-10 2-20 6-29 2 2 3 3 5 4 2-6 6-12 10-16 4-3 5-7 4-13 0-15 3-28 8-41 7-120-2-239-27-357-12-50-25-100-39-149-1 0-3 0-4 0 0 1-1 3-2 4-2-4-4-9-6-13-181-3-361-5-540-8-14 10-28 19-41 29-9 6-16 12-21 21-7 13-16 24-29 33-3 0-4 1-4 4-4 11-11 19-21 25-2 9-8 16-17 21 1 6-2 10-8 12-6 2-9 6-8 13-1 9-5 16-13 20-3 2-5 5-4 9-3 12-9 23-16 33-1 11-5 21-13 29-11 42-15 85-10 129 8 28 24 52 47 70 2 4 5 5 9 4 12 3 23 9 33 17 6 5 10 4 12-4-2 0-4-2-4-4-2-40 6-77 25-112 1-15 7-28 17-38 5-4 7-10 8-16 0-9 4-15 12-17 3 0 5-1 5-4 8-10 18-11 29-2 6 4 8 11 8 18 0 8-1 11-4 9-4-3-5-7-4-13-7 0-14 0-21 2 8 2 14 7 17 15 3 5 3 10 0 16-2 10-7 18-13 25-16 49-30 97-41 146-4 1-5 4-5 8 2 47 13 93 34 137 21 25 44 47 70 66 63 27 129 36 197 29 87 4 172-6 255-29z m42-772c6-1 12-3 17-8 11-48 11-97 0-145-2-7-6-11-13-13-3 0-5 0-8 0-6 0-10 1-15 4-3-5-8-9-14-10-141-1-280-3-419-6-13 2-25 3-38 4-9 8-19 17-29 25 0 7-2 14-4 21 4 43 6 87 4 133 173 1 346-1 519-5z" horiz-adv-x="828" />

<glyph glyph-name="football" unicode="&#xe813;" d="M106-129c11 1 13-2 6-8-3 2-5 5-6 8z m206-4c3 0 6 0 8-2-4-3-6-2-8 2z m-44 0c3 4 7 5 12 2-4-2-8-3-12-2z m-13 0c2 4 5 5 9 2-3-2-6-3-9-2z m-235 336c7-12 12-24 17-36 9-6 14-14 16-25 5-4 11-8 16-12v-8c7-3 11-8 12-16 8-7 16-14 25-20 10-15 21-30 32-45 12-4 20-12 24-24 15-9 29-21 40-35l5-6c9-2 16-8 20-16 8-5 14-10 20-16 9-3 16-8 21-16 10-6 20-13 28-21h8c1-2 3-5 4-8 4 1 7 0 8-4 13 1 18-4 14-16-1 2-3 4-6 4h-4c-35-4-71-10-107-16-25 6-50 8-75 8-4 4-10 5-16 4-13 4-25 9-37 16-4-1-6 1-8 4-8 4-16 8-24 12 0 3-1 4-4 4v-4c-8 1-9 4-4 8-3 4-4 8-4 13-6 2-9 6-8 12-5 3-9 7-13 12 1 5 0 9-4 12 1 5 0 9-4 12-1 16-4 31-8 45 0 34 0 67 2 101 1 20 5 39 10 57 0 0 0 0 0 0-1 7 1 14 4 20z m268-330c7 3 14 2 20-2-6 0-11-1-16-4-1 2-2 4-4 6z m-166 6c-6-3-11-5-16-8-3 0-4 1-5 4 7 4 13 5 21 4z m214 8c2 4 5 5 9 2-3-2-6-3-9-2z m-291 12c2 5 5 5 8 0-2-4-5-4-8 0z m8 12c-1-2-2-2-4 0h4z m441 867c10-2 18-6 25-12 5-1 11-2 16-4 1-2 3-5 4-8h0 8c8-5 16-11 24-16v-4c13-6 25-13 37-20 1-3 3-6 4-9 6 1 10-2 12-8 12-6 23-14 32-24 11-4 19-10 25-20 4-2 7-4 8-8h8c5-8 12-15 20-21 2-4 4-6 8-8 4 5 8 5 13-2-3-2-6-2-9-2 3-5 7-9 13-12 1-4 4-7 8-8 1-4 4-7 8-8v-8c12-11 24-22 36-33v-8c9-4 14-11 16-20 6-4 11-8 17-12 2-7 5-14 8-20 7-3 11-9 12-17 3-1 5-2 8-4v-8c6-2 8-6 8-12 3-1 6-3 8-4 7-13 14-27 20-40 5-2 7-4 8-8l1-5 12-6c-2-9-6-16-12-22-6-18-13-35-21-53h-4c-2-11-7-20-16-28 1-8-2-13-8-16-1-9-5-16-12-20-2-6-3-11-4-17-4-2-8-5-12-8v-8c-3-1-6-3-8-4v-8c-3 0-5-1-5-4-2-1-5-3-8-4-7-17-17-30-32-41-1-6-4-11-8-16-3-1-6-3-8-4-3-5-7-9-12-12-7-12-15-23-25-32h-8c-6-10-14-18-24-25-5-8-11-14-20-16-12-13-26-23-41-32-3-5-7-9-12-13-4-2-8-3-12-4-6-5-13-9-20-12-4-5-8-9-13-12-25-12-51-23-77-32-6-5-13-9-20-12-4 0-7-1-8-5-7 1-11-2-14-8-16 12-31 23-47 33h-8c-10 7-19 15-28 24-7 1-12 4-16 8v4c-7 3-14 6-21 8-2 4-5 8-8 13h-8c-4 8-11 13-20 16-7 8-14 16-20 24-11 5-20 12-29 20-6 8-13 17-20 25-16 12-30 27-40 44-16 11-28 25-37 41-9 10-18 19-28 28 0 4-1 7-4 8v-8c-3 1-6 3-8 4-3 5-7 5-11 0-3 5-2 9 2 12 2-5 3-5 4 0 3-1 6-2 9-4v8c-3 2-6 3-9 4-2 9-7 16-16 21-2 7-6 14-12 20-2 5-4 9-8 12v8c-6 2-8 6-8 12-3 2-5 3-8 4 0 4-1 7-4 8-1 13 3 24 12 33 0 8 2 15 8 20 9 25 19 50 32 73 4 1 5 4 4 8 6 6 10 13 13 20 2 2 5 3 8 4v9c11 15 23 30 36 44 4 11 11 19 20 24v9c7 5 14 10 21 16v4l8 4c11 19 25 34 44 44 10 14 22 25 37 33 3 7 8 11 16 12 3 4 5 8 8 12 9 7 19 12 29 16 10 10 21 19 32 29 5 1 11 2 16 4 1 2 3 5 4 8 6 1 11 3 16 4 7 6 15 10 25 12 6 6 15 10 24 12v4c12 5 24 9 36 12z m-24-854c4 0 7-1 8-5-4 0-6 1-8 5z m-69 4c2 4 5 4 8 2-2-2-5-3-8-2z m-8 16c-1-4-4-5-8-2 2 2 5 2 8 2z m-377 24c1-3 0-6-2-8-2 4-2 6 2 8z m-4 12c0-10-2-11-8-2 3 2 5 3 8 2z m337-4c-2-4-5-5-8-2 2 2 5 3 8 2z m-49 25c4-2 5-5 2-9-2 3-3 5-2 9z m312-5c3 1 6 0 8-2-4-2-6-2-8 2z m-324 7c5 3 9 2 12-2-3-2-5-3-8-5-1 3-2 5-4 7z m24-7c-3 2-3 4 0 5v-5z m-312 13c4-2 5-5 2-8-2 2-2 5-2 8z m255 24c5-2 5-4 2-8-1 2-2 5-2 8z m-32 24c2 4 4 5 8 2-2-2-5-2-8-2z m478 4c2 4 4 5 8 2-2-2-5-2-8-2z m-150 491c-10 0-19-1-28-5 0-5-1-11-4-16 9-13 19-25 29-37l11-11c1-1 2-1 3-2 3-1 4-3 5-6-6-4-12-10-16-17-15-12-28-25-40-40l-8 8c-1-1-1-2-1-2-1-2-1-3-2-4-1-2-2-3-3-3-1-1-3-2-4-3-1 0-2 0-3 0-2 0-3 1-4 1-4 2-3 4 0 7v8c-11 6-9 9 4 8-2 5-6 9-12 10 3 2 4 4 4 6h-8l-8-8c-1 1-3 1-4 2-8 5-8 9 0 14-5 6-11 6-16 0 3-2 5-7 4-12-4-4-7-4-10 0-4-9-2-15 6-20 12-13 24-27 36-40-10-14-22-25-36-33-3-7-7-14-12-20-4-3-8-4-12-2-12 11-23 22-33 34h-8c-10 10-19 10-28 0-5-9-5-18 0-28h4c5-7 11-14 16-20 8-3 14-7 20-13 1-6 0-11-4-16-5-3-9-7-12-12 3 0 4-1 4-4-4-2-7-4-10-8-1 1-2 2-2 3l0 1c-2-1-3-2-5-3-5-4-8-8-11-13-4-3-8-5-12-8-13 13-25 27-37 40h-8c-6-1-14-1-24 0-3-9-5-18-4-28 4-3 8-6 12-8 2-6 6-10 12-12-1 3 1 6 4 8 4-2 4-5 0-8 5-2 5-3 0-4 5-6 11-11 16-17-1-2-3-5-4-8-4-1-7-4-8-8 4-3 2-6-4-8l-1-5c-1-3-4-3-7 1-6-3-10-7-12-12-4-2-5-4-4-8 9 0 10-3 4-8-3-1-4-2-4-4 7-12 16-15 28-9-11 2-11 3 0 5 0 2 1 4 4 4 1 5 3 5 4 0 8 5 15 12 21 20 2 2 4 5 5 8 4-3 8-5 11-8 11-8 20-18 28-29 8-3 16-7 24-12 7 3 13 7 18 12 3 19-4 32-22 41-1 3-3 5-4 8l-3 0c-3 1-6 2-9 4-2-4-4-4-8 0-4 4-4 6 0 8-1 8 2 15 8 20 7 5 12 10 16 17 6 2 10 6 12 12-1 0-3 0-4 2 3 5 6 6 8 2 4 3 8 5 13 8 9-8 19-16 28-24l12-17h8c3-2 6-3 10-4 2 0 4 0 5 1 4 1 8 3 9 8 5 7 6 15 2 24-5 5-10 10-14 16-3 1-5 3-7 5l-1 3c-2 0-4-2-6-4-1 6-5 10-10 12-1-5-3-5-4 0-4 3-5 7-2 12 7 7 13 13 18 21-5 2-5 5 0 8 3-1 4-2 4-4 7 4 12 9 16 16 6 4 11 8 17 12v4c14-9 26-21 36-36 7-5 15-8 24-8 8-1 13 2 17 8 4 6 5 12 2 20-5 3-8 8-11 12-4 1-6 4-8 8-9 3-15 8-20 16-4 3-8 6-12 10 12 14 25 26 40 35 5 7 11 13 17 20 4-4 10-7 16-8 3-3 7-5 12-6-3-1-5-3-8-4 5-7 12-12 20-14 0 2 1 3 2 4 6-3 6-6 2-8 7-5 16-5 25-2 2 5 5 10 8 14-2 13-9 22-21 28-4 6-8 11-12 16h-8c-8 8-5 15 8 21 4 5 8 11 12 16-9 1-8 4 2 8 2-1 3-2 2-4 6 3 10 8 13 14-5 3-5 7 0 10-4 5-8 9-13 12-1 3-3 4-6 4-21-8-37-21-50-40-4 2-5 5-4 8-16 9-30 21-41 37z m-247-393c0-3-1-4-4-4-11-2-11-3 0-5h8v9c-1 5-3 5-4 0z m-198 44c0-8 3-9 8-4h4v-12c-15-1-19 5-12 16z m198-8c6 1 11 0 16-4-2-1-5-3-8-4-5 1-7 4-8 8z m65 8c2-5 3-11 2-16-6 4-12 7-18 10 5 3 10 5 16 6z m458 4c2-6 2-13-2-20-3 3-6 4-10 4v4c5 2 8 6 8 12h4z m-12-16c-1-3-3-3-5 0h5z m-714 24h-4c-6 6-4 9 4 8v-8z m377 25c-1-4-4-7-8-9 1 6 0 10-4 13 0 3 0 5 2 8 4-5 7-9 10-12z m-397-4c-2 2-2 3 0 4v-4z m405 24c8-3 10-9 6-16-8 4-10 9-6 16z m-413 4c1-3 0-6-2-8-3 4-2 6 2 8z m361 20c2 0 4-2 4-4 8 6 12 3 12-8-1-4-3-8-4-12-3 0-4 2-4 4-11 4-14 11-8 20z m-53-8c9-3 10-7 2-12-2 4-3 8-2 12z m-316 0c1-3 0-6-2-8-3 4-2 6 2 8z m227 4c9-2 8-6-2-12-2 4-1 8 2 12z m130 4c5-2 5-5 0-8-4 2-4 5 0 8z m-373 16c3-6 3-11 0-16-9 5-9 10 0 16z m-4 8c-1-2-2-2-4 0h4z m352 5c4 5 8 5 12 0-3-5-7-5-12 0z m494 12c5-2 5-5 2-8-1 2-2 5-2 8z m-854-4c-2-5-5-5-8-2 2 1 5 2 8 2z m380 8c16 0 16-3 3-8-2 2-3 5-3 8z m96 44c2-5 0-8-6-8 1 3 3 6 6 8z m-39 41c7-2 9-6 6-12-4 3-6 7-6 12z m16 11c-1-1-2-2-4-3 1-2 2-3 3-4 1 0 1 0 2 0 1 1 2 2 3 4 0 1-1 2-2 3-1 0-1 0-2 0z m4 9c2-4 5-7 9-8v8h-9z m-397 16c4-2 5-4 4-8-3-1-4-4-4-8-5 5-5 10 0 16z m535 8c5-3 5-7 0-12-4 4-4 8 0 12z m-20-4c3-1 6-3 8-6-5-2-8 0-8 6z m16 12c-3-9-9-10-16-2 5 2 11 3 16 2z m-535 9c12 5 19 0 21-13-9 1-16 5-21 13z m576 346c47 6 94 7 141 2 16-4 31-9 45-16 10 0 19-4 24-12 6 0 11-3 12-8 10-3 16-8 20-17l1-4c11-8 17-19 20-32 10-16 16-34 18-53 9-65 6-130-8-194-4-10-9-10-14 0v8c-5 3-9 7-12 12-2 5-3 11-4 16 5-4 9-10 12-16-2 4-4 7-6 10-1 1-2 2-3 3-1 1-2 2-3 3-11 14-22 27-33 41v8c-4 3-8 5-12 8-4 5-8 11-12 16-2 4-4 8-4 12-5 3-10 7-12 12-3 2-6 3-8 4-2-4-5-4-8-2-6 4-6 8 0 11-3 3-4 7-4 12-3 1-6 2-9 4-5 7-10 13-16 20-8 8-18 15-28 20-1 4-4 7-8 8-7 8-14 17-20 25h-9c-5 9-13 16-24 20-1 4-4 7-8 8-1 3-3 5-4 8h-8c0-2-2-3-4-4-5 3-5 6 0 8-2 3-3 6-4 8-8 1-13 5-16 12l-5 2c-11 4-20 10-28 19-4 0-8 1-12 4 16 7 33 12 53 14z m247-326c4-2 5-4 2-8-2 2-3 5-2 8z m0 0c-6 4-6 8 0 12v-12z m-12 16c4-2 4-4 2-8-2 2-3 5-2 8z m48 8c4-1 5-4 2-8-2 2-2 5-2 8z m-308 16c4-1 6-3 8-6-5-2-8 0-8 6z m-468 25c2-3 3-5 2-8-4 1-4 4-2 8z m703 4c0-3-2-3-4 0h4z m-682 16c2-3 2-5 2-8-4 1-5 4-2 8z m658 16c-2-4-4-5-8-2 2 2 5 3 8 2z m-136 37c3-4 2-7-2-9 0 3 0 6 2 9z m237 36c4-2 5-4 2-8-2 2-2 5-2 8z m-198 28c1-11-2-13-8-6 2 3 5 5 8 6z m-397 33c4-2 5-5 2-8-2 2-3 5-2 8z m336 20c1-4 0-8-2-12-3 5-2 9 2 12z m-12-4c-1-3-2-3-4 0h4z m-138 8c3 4 7 5 12 2-4-2-8-2-12-2z m-117 4c1 4 4 5 8 2-3-2-5-2-8-2z m20 10c4 3 6 2 8-2-3 0-6 0-8 2z m170 59c8 1 11-2 10-8-3 5-5 5-8 0-2 2-2 5-2 8z" horiz-adv-x="960" />

<glyph glyph-name="hockey" unicode="&#xe814;" d="M934 813c14-15 19-33 15-54-4-6-7-11-11-16-15-20-24-42-28-66-8-23-19-43-31-63-13-16-22-34-27-55-19-39-37-78-55-117-9-15-18-31-27-47-8-5-12-13-12-23-15-35-32-69-51-102-20-19-32-42-35-70-7-20-16-38-27-55-16-23-29-47-39-74-12-17-21-35-28-55-7-18-16-36-25-54-6-6-11-12-18-16-8-5-14-12-19-20-5-6-11-10-20-11-13-3-26-6-39-10-135-3-271-3-406 0-8 3-16 5-24 6-17 14-26 32-27 54 4 37 9 74 16 110 0 5-2 9-4 12 0 2 1 4 4 4 4 9 6 20 7 31 7 7 12 14 16 23 10 5 19 10 27 16 137-1 274 0 411 2 32-2 60 8 84 29 3 5 5 10 5 16 17 23 30 48 40 74 8 6 11 13 11 23 0 4 1 7 4 8 20 31 37 63 51 98 1 6 3 12 8 16 11 6 19 16 23 29-5 6-4 10 4 14 4 6 5 12 4 19 1 7 3 12 8 16 24 38 44 79 62 121 0 4 1 6 4 8 6 6 10 14 12 23 4 2 8 4 12 8 3 13 10 24 19 33-3 4-4 9-4 14 15 18 25 39 32 62 0 3 0 5 0 8 1 0 2 0 3 0 8 6 13 14 16 23 18 13 38 15 59 8z m90-738c7-8 14-17 19-27-5-11-12-20-19-28-2-3-4-4-8-4-43-15-87-22-133-19-50-4-96 6-141 27-6 7-11 14-15 22 4 5 6 11 7 17 7 2 12 6 16 12 43 17 88 23 135 19 48 4 94-3 139-19z m-282-94c18-14 39-22 63-25 26-4 53-6 80-6 26-1 49 2 68 8 2 3 4 4 8 4 7-5 15-5 23-2 20 7 40 14 59 21 2-23-1-45-8-66-8-6-14-12-19-20-2-3-4-4-8-4-11-1-20-4-27-11-59-9-117-10-176-4-16 6-31 13-47 19-2 6-6 8-12 8-5 0-8 3-8 8-7 24-9 49-6 74 3-3 6-4 10-4z" horiz-adv-x="1043" />

<glyph glyph-name="horse" unicode="&#xe815;" d="M622-9c8 0 17-2 24-6v0l3-2c3-2 5-5 7-9 9-15 16-31 24-47h2l10-19c4-18-3-28-21-32-162-2-324-2-486 0-11 3-18 11-19 22 4 16 11 29 22 40 0 0 1 0 1 0h0c0 0-1 0-1 0 4 15 12 28 22 39l2 3c5 6 12 9 20 10 131 1 260 1 390 1z m-444-104h0 0z m-15 4c3-1 3-2 1-5-1 2-1 3-1 5z m15 21h0 0z m36 63h0 0z m430 3c1-1 2-1 3-1l1 1c-1-1-2-1-4 0z m-216 4c-45-1-90-1-134-1 44 0 89 0 134 1z m-47 28c5 3 11 4 17 2-6-2-11-2-17-2z m22 0c3 3 7 4 11 2-3-2-7-2-11-2z m-132 0c1 3 3 4 5 2-1-2-3-2-5-2z m55 0c1 3 3 4 6 2-2-2-4-2-6-2z m22 0c1 3 3 4 6 2-2-2-4-2-6-2z m72 0c1 3 3 4 5 2-1-2-3-2-5-2z m142 840c11-2 20-7 28-14 1-14 1-27-2-41-5-15-6-31-4-47 69-45 111-107 126-188 7-36 21-68 44-97 17-25 31-51 43-80 11-54-8-93-57-117-21-6-42-5-63 1-13 7-25 16-36 25-22 29-50 52-83 68-22 5-43 13-63 23-7 8-13 15-20 22-4 13-9 25-14 36-1 8-1 8-2 0-4-3-6-8-7-14-7-39 0-76 20-110 2-6 5-12 9-17 1-4 4-8 8-11 0-4 2-7 6-8 22-33 45-65 70-97 29-45 45-94 48-147-1-7-3-13-5-18-113-4-227-4-340-2-10 9-19 19-28 29-15 16-30 33-44 50-1 3-3 5-5 5-8 13-15 24-22 34 0 2-1 4-3 5-3 10-8 19-14 28 0 3 0 4-3 5 1 3 0 5-2 6-7 21-15 41-23 61 1 10-2 18-8 26 2 2 3 5 3 8-11 65-10 130 3 195 5 15 9 31 13 47 22 52 51 96 89 134 8 6 16 12 25 18 0 0 0 0 0 0 6 7 12 13 19 19 12 5 23 12 33 19-3 2-3 3-1 6 1-2 2-4 1-6 5 0 9 2 11 6 2 0 4 0 6 1-4 2-4 4 0 4 2 0 3-1 5-2 41 17 84 28 130 31 10 26 25 48 44 67 9 6 19 13 28 19 13 5 26 11 37 18z m-352-759c4-5 8-10 13-15-5 5-9 10-13 15z m-19 10c-1-1-2-1-3 0h3z m-38 28c2-3 2-7 2-11-44-1-86-2-129-3-6 2-11 5-16 9-3 25-2 50 1 76 33 3 65 5 97 6 2-3 5-3 7 0 13-25 25-51 38-77z m-9 25c1 3 3 3 5 1-1-1-3-1-5-1z m-3 11c2-1 4-2 5-4-3-2-5 0-5 4z m-44 41c1 3 3 4 5 2-1-1-3-2-5-2z m-44 3c-1-2-2-2-3 0h3z m41 125c0-15 2-29 6-42 2-25 7-50 13-75-6 0-12 0-18 0l-18 0-7-1c-19-2-37-2-56 0-2 1-3 3-3 4l0 1c0 2-1 2-3 2-1 30-4 60-8 90 0 5 1 10 3 15 1 2 3 3 5 4 29 2 57 2 86 2z m-50-116c6-1 11-1 17-1-6 0-11 0-17 1z m11 118c2 3 5 4 9 2-3-2-6-2-9-2z m17 6c3-1 3-3 1-6-1 2-1 4-1 6z m-46 154c2-2 5-4 7-6l3-2c5 1 10 0 14-3 0 0 1 0 1-1 0 1-1 1-1 1 7 1 14-1 19-5h0c12 0 24-3 35-8-6-42-10-83-13-125-29-1-58 0-87 3-3 8-4 15-4 24 2 32 5 63 7 95l3-3c1 6 2 12 4 17l3 5c3 2 7 5 9 8z m79-118c3-1 3-3 1-6-1 2-1 4-1 6z m356 63c-1-7-1-7-2 0h2z m-392 191c2 9 7 13 17 10 24-15 47-32 69-50-6-9-11-19-14-29-13-23-24-48-32-75-1-1-2-2-4-3-10 3-19 5-28 9-16 3-33 6-49 11-6 1-8 5-9 11 12 42 28 81 50 116v0z m46-138c1-2 1-4 1-6-3 1-3 3-1 6z m-6 15h0 0z m511 98c-13-1-22-7-26-19-3-7-4-15-1-22 2-2 4-4 6-5-3-1-3-3 0-5 14-8 26-9 39-1 3 0 5 2 6 5 4 4 7 10 8 17-2 6-4 13-7 19-2 2-4 3-7 3-5 4-11 7-18 8z m-482-7c3-3 6-6 8-10l1 0c-2 2-3 4-4 6-2 1-3 3-5 4-18 12-37 24-56 37h0c19-13 38-25 56-37z m50 167c11-16 23-32 36-47 5-10 10-19 16-29-15-14-30-30-44-45 3-1 5 0 7 2 1-1 2-3 1-5-3-1-6 0-8 3v0c-12-13-24-26-36-39-8 5-16 10-25 14-12 11-26 20-41 27-2 4-5 7-8 9 2 4 4 9 5 13 28 37 60 69 97 97z m-102-110c0-2 0-4-2-6-2 3-1 5 2 6z m2 13c-1-2-2-3-5-1 2 1 3 2 5 1z m180 17c-2 1-2 2 0 3v-3z m73 149c2 0 4-1 6-3 3-27 6-53 9-80-1-3-3-6-5-9-34-10-67-24-97-43-4 4-9 7-14 11 0-2-1-2-2 0h2c-10 16-21 32-33 47-1 5-4 9-8 12 2 3 3 6 3 10 24 11 48 23 72 35 22 8 44 14 67 20z m-7-99c6-1 7-4 2-8-5 2-6 5-2 8z m116 105c11-1 17-6 17-17-3-15-8-30-14-44-4-1-4-2 0-3-4-7-10-13-16-18-24-2-46-6-68-12-5 20-7 40-7 61 0 8 1 16 1 24 4 4 9 7 14 9 25-1 49-1 73 0z m-91-83c3-2 4-5 2-8-2 1-3 2-5 2 1 2 2 4 3 6z m64-6c1 3 3 4 5 2-1-2-3-2-5-2z m-241 28c3-1 4-3 2-6-2 2-2 4-2 6z m406 14c3-1 4-3 2-6-1 2-2 4-2 6z m-237 38c3-1 3-2 1-5-1 2-1 3-1 5z" horiz-adv-x="800" />

<glyph glyph-name="directions" unicode="&#xe816;" d="M792 392h-250v125h250c22 0 43 8 59 24 15 16 24 37 24 59v83c0 22-9 44-24 59-16 16-37 25-59 25h-584l-125-125 125-125h250v-125h-250c-22 0-43-9-59-25-15-15-24-37-24-59v-83c0-22 9-43 24-59 16-16 37-24 59-24h250v-209h84v209h250l125 125-125 125z" horiz-adv-x="1000" />

<glyph glyph-name="tennis" unicode="&#xe817;" d="M421 828c123 10 236-20 337-91 6-4 8-9 5-16-43-124-111-231-205-322-61-45-125-85-193-120-27-20-55-39-82-59-60-62-109-131-147-208-133 147-169 316-106 506 74 175 204 278 391 310z m396-145c111-112 158-247 139-406-33-194-142-326-325-394-155-46-299-23-431 68-5 5-10 10-14 16 36 77 83 147 142 208 22 20 46 37 72 52 50 29 101 57 151 86 127 96 215 219 266 370z" horiz-adv-x="960" />

<glyph glyph-name="soccer" unicode="&#xe818;" d="M293 126c56-27 117-42 180-44l105 121c1 71-15 142-48 205l-208 48c-44-43-78-96-99-154l70-176z m-11-34l-70-59c76-69 177-112 288-112 21 0 42 2 63 5l-91 121c-66 1-131 16-190 45z m-210 231h121c24 61 61 117 108 163v130c-42 10-85 14-128 11-63-75-102-171-102-277 0-9 1-18 1-27z m716-112c37 37 67 82 88 131l-57 194c-48 24-101 40-155 44l-97-166c29-59 45-124 47-190l174-13z m21-30v-128c68 70 111 164 119 267l-21 4c-23-54-57-102-98-143z m24 439c-63 77-152 133-255 152-14-17-27-35-39-54l117-101c58-4 114-18 165-43l12 46z m-329 108c10 17 21 33 33 49-12 1-25 2-37 2-113 0-216-44-292-116 33 0 67-4 99-12 2 1 3 2 5 3l192 74z m-4-878c-276 0-500 224-500 500 0 276 224 500 500 500 276 0 500-224 500-500 0-276-224-500-500-500z" horiz-adv-x="1000" />

<glyph glyph-name="send" unicode="&#xe819;" d="M893 388l-709 333c-7 3-15 5-22 4-8-1-16-4-22-9-6-5-10-12-13-20-2-7-3-15-1-23l81-323-81-323c-2-8-1-16 1-23 3-8 7-15 13-20 6-5 14-8 22-9 7-1 15 1 22 4l709 333c7 4 13 9 17 16 4 6 7 14 7 22 0 8-3 16-7 22-4 7-10 12-17 16z m-665-296l35 140 237 118-237 118-35 140 549-258-549-258z" horiz-adv-x="1000" />

<glyph glyph-name="coin" unicode="&#xe81a;" d="M500-67c166 0 333 58 333 167v500c0 109-167 167-333 167-166 0-333-58-333-167v-500c0-109 167-167 333-167z m0 84c-155 0-250 54-250 83v53c64-35 157-53 250-53 93 0 186 18 250 53v-53c0-29-95-83-250-83z m0 666c155 0 250-54 250-83 0-29-95-83-250-83-155 0-250 54-250 83 0 29 95 83 250 83z m-250-197c64-35 157-53 250-53 93 0 186 18 250 53v-53c0-29-95-83-250-83-155 0-250 54-250 83v53z m0-166c64-35 157-53 250-53 93 0 186 18 250 53v-53c0-30-95-84-250-84-155 0-250 54-250 84v53z" horiz-adv-x="1000" />

<glyph glyph-name="heart-line" unicode="&#xe81c;" d="M500 659c-45 41-105 65-166 65-33-1-65-7-96-20-30-12-57-31-80-54-98-98-98-252 0-350l306-306c7-12 20-20 36-20 7 0 13 1 19 4 5 3 10 7 14 13l309 309c98 98 98 252 0 350-23 24-50 42-80 54-31 13-63 19-95 20-62 0-122-24-167-65z m283-67c65-66 65-168 0-233l-283-283-283 283c-65 65-65 167 0 232 32 32 73 49 117 49 43 0 84-17 116-49l21-20c3-4 8-7 13-9 5-3 11-4 16-4 6 0 11 1 16 4 5 2 10 5 14 9l20 20c63 63 170 63 233 1z" horiz-adv-x="1000" />

<glyph glyph-name="history" unicode="&#xe81d;" d="M768 478c125 3 223-47 291-152 52-94 57-191 15-290-48-98-125-158-232-181-113-17-209 16-288 98-67 78-93 168-78 270 27 122 100 203 219 242 24 7 48 11 73 13l0 0z m-276-554c-73-1-146-1-218-1 72 1 144 1 216 1l2 0c0 0 0 0 0 0z m-439 924c233 1 467 1 701 0 14-4 26-10 34-19 8-9 13-21 15-36-1-83-2-166-1-249-10 0-18 0-24 0-6 0-11-1-14-2-130-9-231-68-301-177l0 0 0 0c-63-106-74-217-32-333v0l0 0c13-36 32-70 54-101 0-2 1-4 3-6-143 0-286-1-429-2-17 3-29 9-39 19-9 9-16 22-18 38 1 273 2 545 3 817v0l0 0c0 2-1 3-2 4 8 25 24 40 50 47z m434-918c2-2 3-3 4-5l0 0c-2 1-3 3-4 5z m316 446c-7 4-15 6-25 5l0 0 0-1c-8-3-15-9-19-17l-1 0 0 0c-3-12-4-25-3-37-19-3-37-8-53-18l0 0c-15-9-25-21-32-36l0 0 0 0c-8-31-6-56 5-77 11-20 32-35 62-45l0 0 79-25c9-3 17-7 24-12 8-7 11-14 12-21 0-7-2-14-9-22-17-11-36-16-56-16h0c-33 2-63 11-92 25l0 0 0 0-2 1c-6 1-12 1-17-1-5-1-10-5-15-10l0 0 0 0c-5-8-6-16-5-23 2-7 6-14 14-20l0 0 0 0c26-12 54-22 83-28 1-9 2-18 2-27l0 0 0 0c2-9 5-15 11-20 5-4 12-6 21-7h0c8 1 15 3 21 7 5 5 8 11 10 20l0 0 0 0c0 9 1 18 2 27 11 3 22 6 33 10l0 0c24 9 42 25 53 48l0 0 0 0c9 30 8 55-2 75-10 21-30 36-58 48l0 0 0 0-12 3c-29 9-56 18-84 27-3 1-5 3-8 5-2 1-5 3-7 4-6 5-9 11-10 17-1 6 0 13 4 19 10 8 20 13 33 14 16 1 33 1 50-1 22-5 44-11 66-18l0 0 0 0c9 1 17 5 24 11l0 0 0 1c4 7 6 15 5 22-1 7-5 14-11 20l0 0 0 1c-25 8-51 15-77 20 0 10 0 21-1 31l0 1 0 0c-3 9-8 16-15 20z m-486-120c-48 1-97 1-145 0l-1 0 0 0c-4-1-7-2-9-5-6-4-10-9-12-16l0 0 0 0c-1-11-1-22 0-34l0 0 0 0c3-9 9-15 18-19l0 0 0 0c52-3 104-3 156-2l0 0 0 0c10 2 18 7 22 13 5 6 6 15 5 25 1 10 0 18-4 24-4 6-10 11-20 14l0 0 0 0-10 0z m92 186c-77 1-155 1-233 0l0 0 0 0c-1 0-3 0-3-1-1 0-1 0-1-1 0 0 0 0 0 0-9-3-17-8-22-17l0 0 0 0c-1-13-1-25 0-37l0 0 0 0c4-12 12-19 24-21l1 0 0 0c78-1 157-1 236 0l0 0 0 0c10 2 17 7 21 13 5 7 7 15 6 25 1 9-1 17-4 23-4 6-10 10-18 13l0 0-1 0c-40 1-79 1-119 1 37 0 75 1 113 1l0 1z m-406 355c0-135-1-271-1-407 0 136 0 272 1 408 0 0 0-1 0-1z m775-255c6 0 13 0 21 0l4 0h-28c1 0 2 0 3 0z m25 1l0 16c0 36 0 72 0 109v-125z m-424 81c-70 1-140 0-211-2l0 0 0 0c-7-3-13-7-16-13-3-6-4-13-3-21-1-9 0-17 3-23 4-7 9-12 18-15 1-1 2-2 4-3l1 0h0l202 0h0c69 0 136 0 202 1h0l0 0c6 1 12 3 16 7 5 4 9 9 11 15l0 0 0 0c1 12 1 24 0 35l0 1 0 0c-5 11-14 17-26 18l0 0h0l-201 0z" horiz-adv-x="1104" />

<glyph glyph-name="arrow" unicode="&#xe81e;" d="M542-25l0 608 220-221 59 59-321 321-321-321 59-59 220 221 0-608 84 0z" horiz-adv-x="1000" />

<glyph glyph-name="affiliates" unicode="&#xe81f;" d="M758 378c83 3 152-26 206-88 52-66 68-141 47-223-25-84-79-140-162-168-107-29-196-1-267 82-49 67-63 140-42 220 28 91 89 148 180 172 13 2 26 4 38 5z m-230-55c-35-45-56-96-62-153-10-97 17-182 82-255-110-1-221 0-332 2-68 11-120 46-156 103-27 52-33 105-17 161 30 84 90 131 179 143 102 0 204 0 306-1z m240-43c-1-2-4-3-6-4-5-6-6-13-5-21-26-4-45-17-58-39-10-28-4-52 17-73 21-12 42-22 66-29 7-4 14-8 20-12 3-3 5-7 6-11 2-14-4-24-17-28-29-6-44 6-48 34-14 1-27-1-41-4-6-2-9-6-9-12 8-33 29-53 62-59-2-16 4-24 20-24 17 0 24 8 21 25 22 3 41 14 55 31 17 34 11 62-19 86-25 12-51 24-77 36-2 2-5 5-7 8-4 14-1 23 11 30 26 7 41-2 45-28 2-1 4-1 6-2 12 3 25 5 38 8 4 1 5 4 5 9-8 29-26 47-56 54 0 8-2 15-6 21-8 3-15 4-23 4z m-345 556c98 6 175-30 232-109 42-71 48-145 18-222-37-80-99-127-186-141-104-11-184 28-241 115-32 57-40 118-25 182 32 100 99 158 202 175z" horiz-adv-x="1056" />

<glyph glyph-name="lottery" unicode="&#xe820;" d="M787 429c0-13 0-25 2-38 6-12 16-17 29-14 8 2 13 7 15 15 1 13 1 25 1 37 72 0 143 0 215-1 36-7 59-30 68-66 1-39 1-77 0-115-1-2-2-3-4-4-53-8-82-39-86-93 0-43 21-73 61-89 9-3 19-6 29-8 1-40 1-80 0-120-9-37-32-59-68-67-326-1-651-1-977 0-38 7-62 30-70 68-1 39-1 79 0 118 1 1 2 3 4 3 54 8 84 39 88 94-5 55-35 86-90 94-1 2-3 3-3 6-1 36-1 72 0 108 7 39 30 63 68 72h718z m16-463c-8-3-13-10-15-19-1-12-1-24 0-36 1-7 5-12 10-16 16-8 28-3 35 14 1 14 1 28 0 41-5 14-15 19-30 16z m-390 330c-3-3-6-5-8-8-14-27-28-53-42-80-4-3-8-4-12-6-28-4-56-8-84-13-11-6-14-16-8-27 20-21 40-42 61-62 4-8 6-16 4-25-4-20-7-40-10-60-1-8-1-16 0-24 4-8 12-11 21-9l79 40c6 1 12 0 18-2 25-13 50-26 75-38 10-2 17 2 21 11-1 28-4 56-10 84-2 9 0 17 6 25 19 19 38 38 57 58 7 15 3 25-13 31-26 3-52 7-79 11-7 2-12 6-15 13-13 24-25 49-37 73-7 7-15 9-24 8z m393-206c-7-3-13-9-17-16-2-13-2-27-1-40 1-8 5-14 12-18 16-5 27-1 33 14 1 14 1 28 0 42-4 13-13 18-27 18z m-3 120c-8-4-13-10-15-19-1-12-1-24 0-36 1-7 5-12 10-16 16-8 28-4 35 13 1 14 1 29 0 44-6 12-16 17-30 14z m2 122c-4-2-7-4-11-7-3-4-5-8-6-12-1-12-1-24 0-37 1-8 5-14 12-18 16-5 27 0 33 14 1 15 1 29 0 44-5 13-15 18-28 16z m53 497c36 5 65-7 87-36 16-29 31-60 44-91-38-30-50-68-35-114 18-41 50-61 95-60 10 2 20 5 29 9 7-8 13-17 18-27 12-23 23-46 33-69 0-1-1-2-1-3-20 19-43 31-69 37-97 2-194 3-291 3-6 10-12 20-17 31-9 9-19 11-31 6-14-10-16-22-6-36-173-2-347-2-520 0 135 71 270 143 405 215 2 1 4 1 5 0 5-11 11-20 19-28 18-6 30 1 35 19-4 12-8 23-13 33 56 31 112 61 169 91 14 8 29 14 44 20z m-160-216c-7 11-17 15-30 11-8-4-14-12-16-22 6-12 12-25 18-38 5-6 11-9 19-9 16 2 24 10 24 27-4 10-9 21-15 31z" horiz-adv-x="1188" />

<glyph glyph-name="cards" unicode="&#xe821;" d="M729-6c1-1 1-2 2-3-9-33-18-66-27-100-10-21-28-34-51-39-2 0-4 0-5-1-9-2-17-1-26 1-25 6-50 13-74 21 4 1 8 3 11 5 5 2 9 4 13 8 5 2 10 6 15 13 8 7 14 16 18 27 5 14 9 28 12 43 14 3 28 6 41 10 10 1 20 3 29 6 14 2 28 5 42 9z m-213 724c24-2 43-12 58-30 12-16 18-34 18-54 0-220 0-445-1-674-2-14-7-27-14-39-14-16-31-26-52-31-153 0-306 0-460 0-10 3-20 6-29 11-6 5-12 10-18 16-3 5-6 10-9 14 0 2-1 4-3 5-3 10-5 21-6 31 1 56 1 112 0 169 0 3 0 7 0 10 0 166 0 334 1 503 1 14 6 27 14 38 3 4 7 8 10 11 17 14 37 21 60 20 143-1 286-1 431 0z m-1-52c-25-2-50-2-73 0-1-1-1-2-1-3-1 1-2 2-3 3-39-1-77-1-116 0-1-1-2-2-4-3 0 1-1 2-2 3-59-1-117-1-175 0-1-3-2-3-4 0-18-1-38-1-59 0-8-1-14-2-18-5-5-3-9-8-10-14-2-25-2-50-2-75 0-164 0-327 0-487 1-41 1-82 2-123 0-1 1-2 1-3 4-9 10-14 19-16 150-1 299-1 449 0 8 2 14 8 18 16 1 3 2 6 3 10 0 20 0 39-1 57 0 5 0 10 1 14-1 5-1 9-1 14 0 19 0 38 1 56 0 32 0 63-1 94 0 7 0 14 0 21-2 0-2 1 0 2v38c-1 0-1 0-1 1 1 1 1 2 2 4-1 11-1 21 0 31-1 29-1 58-1 87 1 5 1 11 1 16 0 2 0 4 0 6 0 13 0 26 0 39 0 41 0 82 0 122-1 2-1 3-2 5 1 1 1 1 2 1 0 19 0 38 0 57 0 5-1 10-3 15-1 4-3 6-5 8-1 1-2 2-3 3-4 3-9 5-14 6z m80 184c17 0 32-4 46-12 5-6 11-11 16-17 4-6 7-13 9-20 31-139 61-279 92-421 9-47 19-94 31-142 8-43 17-86 26-129 4-20 1-40-10-57-5-5-9-10-14-15-2 0-3-1-4-3-5-3-11-6-17-8-27-6-53-12-79-18-9-2-18-4-27-7-15-2-30-5-45-8 0 9-1 19-1 28v110c0 5 0 11-1 16 0 8 0 15 0 21 1 18 1 34 0 50 0 8 0 17 1 25v9c-1 3-1 5 0 8v11c0 5 0 10-1 15 1 4 1 7 0 11 1 0 1 1 1 1v13c-1 6-1 12-1 19 1 11 1 23 0 34-1 1-1 3-1 5 1 2 2 4 2 6v16c-1 14-1 28 0 42v8c0 5 0 9 0 13 0 42 0 83-1 124 1 27-1 54-5 80 0 5-2 8-4 10-1 12-6 23-15 33-1 3-3 5-6 7-5 7-11 12-18 15-15 12-32 18-51 19-88 0-177 0-265 0-24 1-48 2-72 3-1 0-2 1-2 2 6 7 14 12 22 16 25 7 50 12 76 17 1 0 2 0 3 1 9 2 17 4 26 6 4 1 8 1 11 3 14 2 27 5 40 9 71 14 141 30 211 46 9 2 18 3 27 5z m-297-385c6-5 11-10 15-15 3-4 7-7 10-10 10-11 19-21 29-31 17-19 34-37 52-54 10-12 21-24 32-35 2-4 4-7 7-10 19-35 18-69-4-103-28-33-62-42-103-28-1 2-3 3-5 3-2 2-4 3-6 4-1 2-3 3-5 3 2-8 4-16 8-23 6-12 11-23 17-35-1-1-1-3-3-4-4 0-9-1-13-2-24 1-47 1-71 0-5 0-10 1-14 4-1 3 0 6 2 8 5 9 10 20 15 31 3 8 5 15 8 23-25-19-52-23-81-13-10 5-20 12-29 20-3 4-6 7-9 10 0 3-1 5-3 7-1 2-3 6-5 10-3 8-5 16-5 25v21c1 12 4 24 8 35 5 5 8 10 10 16l1-1c3 3 5 5 7 9 22 21 43 43 63 66 3 3 7 7 10 10 4 3 7 7 10 12 1 0 1 0 1 1 1 0 1 0 1 1 7 6 13 13 19 20 2 1 3 2 4 4 2 2 4 4 6 6 3 3 6 7 9 10 3 4 7 6 12 5z m417 247c6-3 12-5 18-5 23-6 47-11 71-16 0-1 2-2 3-1 5-1 10-2 15-3 27-11 40-33 42-64-1-8-2-16-3-24-19-93-38-186-56-279-1-1-2-2-1-4-2-1-2-2-2-4-1 1-1 1-2 2 0 1 0 2-1 3-2 9-4 17-7 25-4 23-9 45-14 67-1-2-2-2-2 0 1 8-1 16-5 24 1 0 1 1 1 2-1 4-2 8-2 13 0 1 0 3-2 3-2 12-5 24-8 36 0-3-1-3-2-1 1 1 1 3 2 4-2 9-4 17-7 25 0 4 0 7-1 10-2-1-3-1-4 2 1 1 1 1 2 0 1 3 0 6-1 10-1-5-2-5-2 1 1 0 1 1 1 2-2 11-4 21-7 31-3 17-7 34-11 51 0 2 0 3-1 5-1-3-2-3-2 1 1 1 1 2 1 3-6 24-11 49-16 74 0 1 0 3-1 3-1 1-1 2-1 3 1 0 3 1 5 1z m-570-81c3-1 4-3 5-5 12-42 24-85 36-128 0-4-1-6-4-7-8-1-16-1-24 0-2 1-3 3-4 6-2 5-4 11-5 17-11 0-23 0-35-1-2-5-4-12-6-18 0-2-2-3-4-4-6-2-12-2-18-2-4 1-6 2-8 5v5c2 13 6 25 9 36 2 5 3 10 3 15 8 26 15 51 23 77 1 1 3 2 4 4 9 0 19 0 28 0z m-14-52c-4-12-7-25-8-37 6 1 12 1 17 2-1 7-2 13-5 19 0 6-2 11-4 16z" horiz-adv-x="900" />

<glyph glyph-name="gift" unicode="&#xe822;" d="M414 431l3-3c3-175 3-351 2-526-3-6-7-9-13-10-95-1-191-1-286 0-39 7-61 29-65 69 0 153-1 306 0 459 1 5 4 9 9 12 116 0 233 0 350-1z m415 0c4-2 7-6 8-11 1-154 1-308 0-462-5-38-27-60-65-66-96-1-192-1-288 0-7 3-11 8-11 16-1 171-1 341 0 512 1 5 3 9 7 12 116 0 232 0 349-1z m-223 399c47 28 93 27 138-3 42-36 54-80 37-132-4-9-8-17-13-25 26-1 52-2 78-3 27-2 41-17 45-43 1-32 1-65 0-97-4-25-19-39-43-44-267-1-533-1-799 0-30 3-46 20-48 50-1 29-1 59 0 88 4 24 17 39 40 45 29 1 58 1 86 2-29 43-31 88-4 133 35 43 79 58 133 44 24-9 46-22 66-39 21-19 41-40 59-62 36 34 75 38 118 14 6-4 11-7 16-11 26 32 56 60 91 83z m62-43c-12-3-23-8-33-14-38-28-70-62-94-102 35-2 70-1 106 1 12 2 23 6 34 10 25 10 40 29 44 55-4 34-23 51-57 50z m-417-9c-14 8-30 10-46 9-6-3-12-5-17-9-25-22-27-46-9-73 16-16 35-26 57-31 38-4 76-5 114-3-25 43-58 79-99 107z" horiz-adv-x="895" />

<glyph glyph-name="support" unicode="&#xe823;" d="M393 306c40 0 72-32 72-73v-284c0-40-32-73-72-73h-77c-60 0-109 49-109 110v211c0 60 49 109 109 109l77 0z m419 0c60 0 109-49 109-109v-211c0-61-49-110-109-110h-76c-41 0-73 33-73 73v284c0 41 32 73 73 73h76z m-250 518c288 0 522-229 529-514l0-13v-215c0-30-24-54-54-54-28 0-51 21-54 48l0 6v215c0 232-188 419-421 419-228 0-414-181-420-407l0-12v-216c0-29-24-54-54-54-28 0-51 22-54 49l0 5v216c0 291 237 527 528 527z" horiz-adv-x="1125" />

<glyph glyph-name="chevrons-left" unicode="&#xe824;" d="M522 506l-56 56-229-228 229-228 56 56-171 172 171 172z m144 56l-229-228 229-228 56 56-171 172 171 172-56 56z" horiz-adv-x="1000" />

<glyph glyph-name="chevron-down" unicode="&#xe825;" d="M679 463l-179-179-179 179-59-59 238-238 238 238-59 59z" horiz-adv-x="1000" />

<glyph glyph-name="plus-1" unicode="&#xe826;" d="M792 392h-250v250h-84v-250h-250v-84h250v-250h84v250h250v84z" horiz-adv-x="1000" />

<glyph glyph-name="info-circle.svg" unicode="&#xe827;" d="M500 767c-230 0-417-187-417-417 0-230 187-417 417-417 230 0 417 187 417 417 0 230-187 417-417 417z m0-750c-184 0-333 149-333 333 0 184 149 333 333 333 184 0 333-149 333-333 0-184-149-333-333-333z m-42 375h84v-250h-84v250z m0 166h84v-83h-84v83z" horiz-adv-x="1000" />

<glyph glyph-name="volumen.svg" unicode="&#xe828;" d="M667-25c147 65 250 205 250 375 0 171-103 311-250 375v-83c99-58 166-169 166-292 0-123-67-234-166-292v-83z m0 583v-416c51 46 83 134 83 208 0 74-32 163-83 208z m-500-416h112l304-203v822l-304-203h-112c-46 0-84-37-84-83v-250c0-46 38-83 84-83z" horiz-adv-x="1000" />

<glyph glyph-name="mute" unicode="&#xe829;" d="M286 634l-201 201-70-70 900-900 70 70-101 101c75 88 116 199 116 314 0 205-124 373-300 450v-100c119-69 200-202 200-350 0-89-30-175-84-246l-64 65c30 54 48 122 48 181 0 89-39 195-100 250v-379l-100 100v522l-314-209z m-186-534h135l365-243v187l-545 545c-16-8-30-21-40-37-10-15-15-33-15-52v-300c0-55 45-100 100-100z" horiz-adv-x="1000" />

<glyph glyph-name="hide" unicode="&#xe82a;" d="M304 355l-193 193c-76-83-105-166-106-168l-5-15 5-16c1-3 116-334 498-334 46 0 89 5 127 13l-137 138c-49 2-96 23-131 58-35 35-56 82-58 131z m199 360c-93 0-169-21-232-50l-186 185-70-71 900-900 70 71-165 165c132 98 179 232 180 234l5 16-5 15c-1 4-116 335-497 335z m95-378c9 34 1 72-25 98-26 26-64 34-98 25l-75 75c31 19 66 30 103 30 110 0 200-90 200-200 0-37-11-72-30-103l-75 75z" horiz-adv-x="1050" />

<glyph glyph-name="show" unicode="&#xe82b;" d="M500 642c-318 0-414-276-414-279l-5-13 5-13c0-3 96-279 414-279 318 0 414 276 415 279l4 13-4 13c-1 3-97 279-415 279z m0-459c-92 0-167 75-167 167 0 92 75 167 167 167 92 0 167-75 167-167 0-92-75-167-167-167z m0 250c-45 0-83-38-83-83 0-45 38-83 83-83 45 0 83 38 83 83 0 45-38 83-83 83z" horiz-adv-x="1000" />

<glyph glyph-name="minus" unicode="&#xe82c;" d="M208 392h584v-84h-584v84z" horiz-adv-x="1000" />

<glyph glyph-name="plus" unicode="&#xe82d;" d="M792 392h-250v250h-84v-250h-250v-84h250v-250h84v250h250v84z" horiz-adv-x="1000" />

<glyph glyph-name="trophy" unicode="&#xe82e;" d="M839 840c36-3 74-4 111-5 7-8 11-17 12-29 1-39 0-79-3-122v-9h97c30 2 55-7 76-27l0 0c24-24 36-54 37-88 2-93-25-177-82-250-10-11-21-22-31-33-4-2-7-6-9-10-6 0-10-3-12-9-35-23-74-40-116-50 4-2 4-3 0-4-5 1-10 2-15 3-21-3-43-4-64-5-3-1-5-2-6-5-16-19-34-35-55-48 0 1 0 2-1 2h0c1 0 1-1 1-2-8-5-15-10-21-16-27-11-54-21-82-28 4-5 3-8-3-10 0-13 0-28 0-44-1-24 0-47 3-70 4-4 10-7 16-9 13 0 25 1 37 3 48-3 69-29 62-77 0-12-1-24-1-35-1-11-7-17-17-20-122-2-243-2-365-2-7 4-14 7-21 11 1 1 2 2 3 3-9 32-8 64 1 96 9 12 20 20 35 23 24 0 47 0 70 1 3 0 5 0 7 0 1 1 3 1 4 1 1 1 2 1 3 2v0c-4-2-9-3-14-3 5 4 7 9 6 15 3 1 4 3 3 6 4 36 4 72 0 107h-3c-22 9-46 17-70 24-1 3-3 4-6 3-1 3-3 4-6 4-5 5-11 9-18 12-9 9-19 17-31 24-8 9-16 18-24 27-1 3-3 4-6 5-46 0-90 6-134 20-1 2-3 3-6 3-14 8-27 15-40 21 0 2-1 3-3 3-2 3-5 5-9 6-9 9-20 18-30 26-14 16-28 32-43 47-3 9-9 18-15 25-21 37-36 77-46 121v19c1 5 0 11-3 15-2 9-1 18 0 27v34c0 11 1 22 3 33 7 14 14 27 22 40 6 6 13 11 21 15-1-1-1-1-2-2l2 2c6 7 13 12 21 15 45 5 91 7 137 6 2 50 3 100 3 149 4 2 7 5 9 8 10 1 20 3 29 5 192-3 386-3 582 0z m-370-694c2-3 4-5 6-8 0-1 1-3 1-5 1 1 1 2 1 2 0 0 0-1-1-1-2 6-5 11-10 15h0c1-1 2-2 3-3z m12-10l0 1c0 1 0 1 0 1 0-1 0-1 0-2z m-6 52c1 0 1 0 2 0-1 0-1 0-2 0z m-8 15h0 0z m358 2c1-1 2-2 3-3l-3 3c0 0 0 0 0 0 0 0 0 0 0 0z m6 2c0 0 1 0 1 0 0 0-1 0-1 0z m-364 6c-1-2-3-3-4-3l0 0c1 0 3 1 4 3z m5 1c2-1 4-2 6-3v0c-2 1-4 2-6 3z m-9 18c2 0 3-1 4-2-1 1-2 2-4 2 0 0 0 0 0 0 0 0 0 0 0 0z m0 8c2-1 4-2 7-4-3 2-5 3-7 4 1 1 2 1 3 2-1-1-2-1-3-2z m-2 9c3-2 5-4 8-6h0c-2 2-5 5-8 6l0 0z m559 31h0c-2 3-4 5-6 7l3-3c1-2 2-3 3-4z m-545 6c-1-2-2-3-3-4 1 1 2 2 3 4h0z m135 380c-11 13-23 15-36 6-15-31-28-62-40-94-4-11-11-18-23-20-31-2-62-4-94-6-20-2-28-12-23-32 28-24 53-49 78-76-2-3-3-7-3-11 7-6 6-13-3-18 6-4 7-10 3-17-10 1-11-1-3-4-7-25-12-50-15-76 0-6 2-11 5-16l4-4c13-4 26-4 39 1 29 19 60 34 92 48 28-14 57-29 85-45 15-8 30-9 45-3 2 5 5 10 10 13-6 35-14 69-25 103 3 5 7 8 12 8v-9c11 0 12 4 3 10 1 1 2 2 3 3-6 1-10 5-12 11 16 14 29 31 40 49 2 1 4 2 6 3 5 0 11 1 15 4 4 4 7 7 11 11-4-4-7-7-11-11-4-3-10-4-15-4 9 10 19 20 29 30 3 18-5 29-23 32-27 2-55 4-82 6-16 0-28 7-35 20-11 31-23 61-37 88z m406-364c0 0 1 1 1 1 0 0-1-1-1-1z m2 3c0 0 0 1 0 1 0 0 0-1 0-1z m1 2c0 1 0 1 0 2 0-1 0-1 0-2z m0 4c0 0 0 0 0-1 0 1 0 1 0 1z m-66 2l3 4c-1-2-2-3-3-4-4 3-7 6-11 9h0c4-3 7-6 11-9z m-731 251c-31 5-61 4-91-1-2-1-3-2-5-3-4-36 0-71 14-104 2-14 7-26 15-36 0 2 0 4 2 6 4-5 4-9 1-12 1-5 3-10 6-13 9-16 21-30 34-42 18-19 39-32 64-40 6-1 10 1 12 6-18 41-30 84-37 128h-9c1 4 0 9-3 12 2 3 4 4 6 3-3 31-5 61-7 92-1-1-2-2-3-3-7 3-6 6 1 7z m825 2c-16 2-33 2-49 0h-42c-2-2-4-4-5-6-1-14-2-27-1-40-5-55-16-109-32-161-3-8-7-15-11-22h0c0-6-2-11-6-16 19-1 36 4 52 15 72 53 106 124 102 214-1 5-3 9-5 12l-3 4z m-41-204c1-5 3-10 5-14l-3 7c-1 2-1 4-2 7-1 1-2 1-3 2l3-2z m45 208c0 0 0 0 0-1v0c0 1 0 1 0 1z m-375 31c-2-3-3-5-4-6 1 1 2 3 4 6-1 2-2 4-3 5 1-1 2-3 3-5z m335-3c1 0 1 0 1 0 0 0 0 0-1 0z m-1 6c0-1 0-1 0-1 0 0 0 0 0 1z m-6 6c2-1 3-2 5-2-2 0-3 1-4 2 5 4 10 8 15 12-5-4-10-8-16-12z m-340 32c0 0-1-1-1-1 0 0 1 1 1 1z m-490 12c0 0 1-1 2-1-1 0-2 1-2 1-2 4-4 8-7 12l7-12z m777 21l43-12v0c-14 4-29 8-43 12l0 0z m52-6c5-1 11-2 17-3v0c-6 1-12 2-17 3h0z m-346 5c2-1 3-1 4-2 2-1 3-2 3-3 0-1 0-2 0-3v0c0 1 1 2 2 3-1-1-2-2-2-3 1 4-1 6-7 8v0z m396-4c9-1 18-2 28-2h0c-10 0-19 1-28 2l-26 2 26-2z m-397 8c-1-3-1-6-1-9 0 3 0 6 1 9 1 1 2 1 2 1 0 0-1 0-2-1z m293 13c1-2 3-4 4-7-5-3-6-7-5-12v0c-1 5 0 9 5 12-1 3-3 5-4 7z m2 68c1-7 2-13 2-20 0-10-2-21-4-31l2 10c1 7 2 14 2 21 0 7-1 14-2 20z m-289 5l3-7v0c-1 3-2 5-3 7v0z m287 54c2-6 4-12 4-18 0-6-2-12-4-17 2 5 4 11 4 17 0 6-2 12-4 18z m-1 9h0c0 1-2 2-4 2-37 1-73 2-108 5-13-1-26-2-39-3 13 1 26 2 39 3 35-3 71-5 108-5 2-1 4-1 4-2z m-232 3c13-1 25-1 37-3l0 0c-12 2-24 2-37 3z m-62 1c0-1 0-2 0-2 0 0 0 1 0 1 9 1 17 1 25 1-8 0-16 0-25 0z m-191-608c1-2 2-3 4-5-2 2-3 3-4 5z m4-5c2-1 3-3 5-4-2 1-3 3-5 4z" horiz-adv-x="1167" />

<glyph glyph-name="leaderboard" unicode="&#xe82f;" d="M799 850c47 1 94-2 140-10 36-13 55-38 58-76 4-276 4-553 0-829-8-50-37-78-88-82-47-5-94-3-141 6-27 10-45 29-51 58-4 286-4 573 0 859 12 42 39 67 82 74z m-354-305c47 2 94-1 140-9 29-10 46-30 52-58 4-189 4-378 0-567-15-37-42-56-82-58-47-5-94-3-140 6-26 9-43 26-52 52-4 189-4 378 0 567 13 40 40 62 82 67z m-378-208c53 1 106 0 159-3 23-8 40-24 52-45 10-122 12-244 6-366-5-32-23-53-52-64-64-14-127-12-189 6-14 11-25 24-34 39-10 118-12 236-6 354 5 41 27 67 64 79z" horiz-adv-x="1000" />

<glyph glyph-name="coin-flip" unicode="&#xe830;" d="M831 672c144-34 244-118 301-253 45-127 33-247-35-362-64-99-154-160-270-183-110-20-211 2-304 65-8 5-15 11-21 17 50 2 97 14 142 34 17-12 36-21 56-26 27-5 54-10 81-14 8-2 16-2 25-2 4 5 7 11 8 17 4 31 10 62 17 93 3 10 10 14 20 13 25-3 50-4 75-2 16 1 30 7 42 17 9 13 10 27 4 41-5 5-8 11-10 17 2 6 5 11 9 16 4 9 2 16-7 21 16 9 19 21 8 37-1 9 2 16 9 22 9 3 18 7 27 11 9 9 11 20 7 32-4 7-7 13-10 20-13 21-26 42-39 63 0 18 0 36-1 54-2 24-9 46-21 67-4 6-9 12-15 17-5-6-11-10-17-15-2 4-1 7 1 10 3 3 6 6 9 9 5 8 10 16 15 25 3 13 1 24-4 36-8 16-20 27-36 34-8 2-14 5-20 10-17 17-33 36-46 56-1 1-1 2 0 3z m-533 132c118 48 235 46 351-6 70-33 128-82 173-146 86-133 99-273 37-420-69-141-181-225-336-250-167-16-302 43-404 177-75 110-97 231-65 362 39 131 121 225 244 283z m193-67c-9 8-20 10-33 8-6-4-12-9-16-15-24-42-48-84-71-126-6-13-17-21-32-23-53-9-106-18-159-27-25-13-30-31-14-55 34-40 68-80 102-120 9-10 11-22 8-35-9-55-17-110-24-166 3-24 17-35 42-33 53 26 106 52 160 78 11 3 22 2 32-3 50-22 99-42 149-62 27-2 40 11 38 39-5 48-10 97-15 145-2 13 0 24 7 34 34 38 67 77 101 115 5 5 8 11 11 18 2 14-3 26-15 33-51 13-103 24-155 33-15 2-26 10-34 23-26 47-53 93-82 139z" horiz-adv-x="1167" />

<glyph glyph-name="limbo" unicode="&#xe831;" d="M1174 849c73-9 123-48 150-116 4-13 7-26 9-40 1-148 1-297 0-446-3-30-14-58-34-81-74-73-148-147-222-221-16-15-35-25-57-29-234-3-468-3-703-2-22 4-41 13-58 28-74 75-149 150-225 224-19 24-30 51-33 82-1 149-1 297 0 445 8 67 44 115 105 143 16 6 31 11 48 14 340 0 680 0 1020-1z m-581-206c-50-7-90-31-118-73-27-49-37-101-29-156 4-41 19-77 45-109 42-43 93-59 153-50 59 11 100 44 123 99 20 55 22 111 8 167-30 87-90 128-182 122z m-371-3v-86h74v-294h100v380h-174z m881-84c-35 2-71 1-106 0-16-24-32-49-48-73-15 24-31 49-46 73-36 2-71 1-106 0 33-47 65-94 97-142-35-51-71-102-107-153 36-1 72-1 107 1 18 27 35 54 53 81 19-27 37-55 54-82 36-1 72-1 108 1-35 51-70 102-105 153 33 47 66 95 99 141z m-503 3c28 4 50-6 65-31 9-18 14-38 16-59 2-26 0-52-6-77-5-21-17-37-34-49-37-14-64-3-82 32-7 16-11 33-12 50-3 30 0 60 9 89 7 22 22 37 44 45z" horiz-adv-x="1333" />

<glyph glyph-name="sliders" unicode="&#xe832;" d="M743 824c11-6 17-14 19-26 1-307 1-613 0-920-6-18-17-24-35-21-2 2-4 4-7 5-16 16-32 33-49 49-19 21-39 41-60 61-33 35-67 70-102 105-7 4-13 3-19-1-39-38-77-77-115-116-34-34-67-67-100-100-16-7-27-2-35 12-1 1-2 2-4 3 2 1 3 3 3 5-1 302-1 605-1 909 0 11 4 21 12 30 5 4 10 6 16 7 155 0 310 0 465 0 4-1 8-2 12-2z m-614-285c9 0 18 0 26-2 1 1 2 2 3 3 2-2 5-2 8-3 12 1 25 1 37 0 0-24 1-49 2-74-1-99-1-198 0-298-52-2-103-3-155-2-14 4-23 13-25 27-1 108-1 215 0 323 4 17 16 26 34 26 23-2 46-2 70 0z m730 0c26-2 52-2 78 0 3-2 6-2 9 0 14-2 24-10 28-23 0-18 1-35 2-52 0-86 0-172 0-258 1-13-2-24-9-34-3-1-6-2-7-5-4-2-7-3-11-4-51 0-103 0-154 0 0 125 0 249-1 374 6 1 13 1 20 2 15 1 30 1 45 0z" horiz-adv-x="1000" />

<glyph glyph-name="rock" unicode="&#xe833;" d="M450 750c28 0 50-22 50-50v-175h-100v175c0 28 22 50 50 50z m-200-100c0 28 22 50 50 50 28 0 50-22 50-50v-125h-100v125z m300 0c0 28 22 50 50 50 28 0 50-22 50-50v-150c0-28-22-50-50-50-28 0-50 22-50 50v150z m150-100c0 28 22 50 50 50 28 0 50-22 50-50v-100c0-28-22-50-50-50-28 0-50 22-50 50v100z m-150-137v0c15-8 32-13 50-13 21 0 40 6 56 17 13-39 50-67 94-67 18 0 35 5 50 13v-13c0-82-39-154-100-200v-150c0-28-22-50-50-50h-250c-28 0-50 22-50 50v123c-27 12-52 29-73 50l-18 18c-38 38-59 89-59 142v42c0 55 45 100 100 100h138c34 0 62-28 62-62 0-35-28-63-62-63h-88c-14 0-25-11-25-25 0-14 11-25 25-25h88c62 0 112 50 112 113z" horiz-adv-x="1000" />

<glyph glyph-name="scissors" unicode="&#xe834;" d="M603 688c0 34-28 62-63 62-34 0-62-28-62-62l0-282c-13 12-31 19-50 19-40 0-72-30-75-69-13 12-31 19-50 19-42 0-75-34-75-75l0-150c0-110 89-200 200-200l177 0c62 0 123 25 167 69 36 36 56 84 56 134l0 72c0 33-22 61-52 71l-37-116c-4-13-18-21-31-16-13 4-21 18-17 31l34 105 0 0 100 319c10 33-8 68-41 78-33 10-68-8-78-41l-103-327 0 359z" horiz-adv-x="1042" />
</font>
</defs>
</svg>
