<svg width="108" height="108" viewBox="0 0 108 108" fill="none" xmlns="http://www.w3.org/2000/svg">
<circle cx="54" cy="54" r="54" fill="#141621"/>
<path fill-rule="evenodd" clip-rule="evenodd" d="M58.7262 34.0237C65.6567 34.5091 69.9317 38.3251 71.5515 45.4716C71.9041 52.3886 69.1238 57.254 63.2105 60.0677C66.1189 64.5704 69.0486 69.0542 71.9999 73.519C69.0416 73.7093 66.0522 73.7728 63.0311 73.7098C58.5706 66.8617 54.0863 60.0248 49.578 53.199C52.3284 53.1354 55.0789 53.0717 57.8293 53.0082C62.6234 51.9962 64.1481 49.1023 62.4033 44.3268C61.1762 42.7455 59.5918 41.8869 57.6499 41.751C52.3872 41.7192 47.1256 41.6238 41.8649 41.4648C40.2357 39.097 38.681 36.6802 37.2012 34.2145C44.3457 34.024 51.5207 33.9604 58.7262 34.0237Z" fill="white"/>
<path fill-rule="evenodd" clip-rule="evenodd" d="M37.2016 57.683C40.7132 62.9267 44.181 68.2056 47.6053 73.5193C44.1088 73.7095 40.581 73.7731 37.0222 73.7101C36.9628 68.3349 37.0226 62.9926 37.2016 57.683Z" fill="#00D4FF"/>
</svg>
