<svg width="65" height="33" viewBox="0 0 65 33" fill="none" xmlns="http://www.w3.org/2000/svg">
<path fill-rule="evenodd" clip-rule="evenodd" d="M11.1734 7.64192C14.7377 7.89156 16.9362 9.85404 17.7692 13.5294C17.9506 17.0867 16.5207 19.5889 13.4797 21.0359C14.9754 23.3515 16.4821 25.6574 17.9999 27.9537C16.4785 28.0515 14.9411 28.0842 13.3874 28.0518C11.0934 24.5299 8.78721 21.0138 6.46871 17.5034C7.88317 17.4707 9.29772 17.438 10.7122 17.4053C13.1777 16.8848 13.9618 15.3966 13.0645 12.9406C12.4335 12.1274 11.6186 11.6858 10.6199 11.616C7.91343 11.5996 5.20748 11.5505 2.502 11.4688C1.6641 10.251 0.864572 9.00812 0.103516 7.74004C3.7778 7.64206 7.46777 7.60935 11.1734 7.64192Z" fill="#1B1D2B"/>
<path fill-rule="evenodd" clip-rule="evenodd" d="M0.103664 19.8095C1.90963 22.5062 3.69308 25.221 5.45412 27.9538C3.6559 28.0516 1.84164 28.0843 0.0114145 28.0519C-0.01912 25.2876 0.011599 22.5401 0.103664 19.8095Z" fill="#00D4FF"/>
<path d="M21.696 26.8279V14.0359H26.792V26.8279H21.696ZM24.244 12.8399C23.4987 12.8399 22.8747 12.5886 22.372 12.0859C21.8867 11.5659 21.644 10.9332 21.644 10.1879C21.644 9.44257 21.8867 8.81857 22.372 8.3159C22.8747 7.7959 23.4987 7.5359 24.244 7.5359C25.0067 7.5359 25.6307 7.7959 26.116 8.3159C26.6013 8.81857 26.844 9.44257 26.844 10.1879C26.844 10.9332 26.6013 11.5659 26.116 12.0859C25.6307 12.5886 25.0067 12.8399 24.244 12.8399ZM30.7202 26.8279V14.0359C30.7202 12.8399 30.9629 11.7739 31.4482 10.8379C31.9336 9.88457 32.6442 9.13057 33.5802 8.5759C34.5162 8.02123 35.6516 7.7439 36.9862 7.7439C38.3209 7.7439 39.4562 8.0039 40.3922 8.5239C41.3282 9.0439 42.0389 9.68523 42.5242 10.4479C43.0096 11.2106 43.2522 11.9732 43.2522 12.7359L39.1962 13.5419C39.1962 13.0392 39.0402 12.6492 38.7282 12.3719C38.4336 12.0946 38.0262 11.9559 37.5062 11.9559C36.9862 11.9559 36.5702 12.0946 36.2582 12.3719C35.9636 12.6492 35.8162 13.0392 35.8162 13.5419V26.8279H30.7202ZM28.1202 18.1959V14.0359H47.8022V18.1959H28.1202ZM39.1962 26.8279V13.5419C39.1962 12.4326 39.4389 11.4186 39.9242 10.4999C40.4096 9.58123 41.1116 8.85323 42.0302 8.3159C42.9489 7.76123 44.0582 7.4839 45.3582 7.4839C46.3289 7.4839 47.1869 7.6399 47.9322 7.9519C48.6949 8.2639 49.3276 8.6799 49.8302 9.1999L46.6842 12.3459C46.5629 12.2072 46.4069 12.1119 46.2162 12.0599C46.0256 11.9906 45.8262 11.9559 45.6182 11.9559C45.2196 11.9559 44.8989 12.0772 44.6562 12.3199C44.4136 12.5626 44.2922 12.8832 44.2922 13.2819V26.8279H39.1962ZM53.3703 26.8279L48.3263 14.0359H53.7343L56.6983 24.9299H54.4623L57.3743 14.0359H62.7563L57.7383 26.8279H53.3703ZM50.5883 32.2879L54.3063 23.8899L57.7383 26.8279L55.5803 32.2879H50.5883Z" fill="#1B1D2B"/>
</svg>
