<svg width="79" height="32" viewBox="0 0 79 32" fill="none" xmlns="http://www.w3.org/2000/svg">
<path d="M5.746 26V22.256H9.152C9.81067 22.256 10.3393 22.0827 10.738 21.736C11.1367 21.372 11.336 20.878 11.336 20.254C11.336 19.838 11.2407 19.4827 11.05 19.188C10.8767 18.876 10.6253 18.642 10.296 18.486C9.984 18.33 9.60267 18.252 9.152 18.252H5.746V14.664H8.918C9.47267 14.664 9.932 14.5253 10.296 14.248C10.66 13.9707 10.842 13.5373 10.842 12.948C10.842 12.3587 10.66 11.9253 10.296 11.648C9.932 11.3707 9.47267 11.232 8.918 11.232H5.746V7.488H10.374C11.5007 7.488 12.48 7.70467 13.312 8.138C14.1613 8.554 14.82 9.13467 15.288 9.88C15.756 10.608 15.99 11.4487 15.99 12.402C15.99 13.7193 15.522 14.794 14.586 15.626C13.65 16.458 12.2807 16.9347 10.478 17.056L10.426 15.262C12.3847 15.3833 13.884 15.9207 14.924 16.874C15.964 17.8273 16.484 19.0493 16.484 20.54C16.484 21.6147 16.2153 22.568 15.678 23.4C15.1407 24.2147 14.3867 24.856 13.416 25.324C12.4627 25.7747 11.3447 26 10.062 26H5.746ZM1.534 26V7.488H6.63V26H1.534ZM18.3347 26V13.208H23.4307V26H18.3347ZM20.8827 12.012C20.1373 12.012 19.5133 11.7607 19.0107 11.258C18.5253 10.738 18.2827 10.1053 18.2827 9.36C18.2827 8.61467 18.5253 7.99067 19.0107 7.488C19.5133 6.968 20.1373 6.708 20.8827 6.708C21.6453 6.708 22.2693 6.968 22.7547 7.488C23.24 7.99067 23.4827 8.61467 23.4827 9.36C23.4827 10.1053 23.24 10.738 22.7547 11.258C22.2693 11.7607 21.6453 12.012 20.8827 12.012ZM33.9889 26V18.824C33.9889 18.3213 33.8416 17.94 33.5469 17.68C33.2696 17.4027 32.9142 17.264 32.4809 17.264C32.1862 17.264 31.9176 17.3247 31.6749 17.446C31.4496 17.5673 31.2676 17.7493 31.1289 17.992C31.0076 18.2173 30.9469 18.4947 30.9469 18.824L28.9709 17.94C28.9709 16.9 29.1962 16.0073 29.6469 15.262C30.1149 14.5167 30.7476 13.9447 31.5449 13.546C32.3596 13.1473 33.2782 12.948 34.3009 12.948C35.2196 12.948 36.0342 13.156 36.7449 13.572C37.4729 13.9707 38.0449 14.5253 38.4609 15.236C38.8769 15.9293 39.0849 16.7353 39.0849 17.654V26H33.9889ZM25.8509 26V13.208H30.9469V26H25.8509ZM46.749 31.876C45.3103 31.876 44.0363 31.6333 42.927 31.148C41.8177 30.68 40.9597 30.0127 40.353 29.146L43.369 26.156C43.7677 26.5893 44.2097 26.9273 44.695 27.17C45.1803 27.43 45.7697 27.56 46.463 27.56C47.295 27.56 47.945 27.3607 48.413 26.962C48.8983 26.5633 49.141 25.9827 49.141 25.22V21.84L49.973 19.084L49.271 16.354V13.208H54.237V25.012C54.237 26.416 53.9077 27.6293 53.249 28.652C52.5903 29.6747 51.6977 30.4633 50.571 31.018C49.4443 31.59 48.1703 31.876 46.749 31.876ZM46.515 25.48C45.319 25.48 44.2617 25.2027 43.343 24.648C42.4243 24.0933 41.705 23.3393 41.185 22.386C40.665 21.4327 40.405 20.3753 40.405 19.214C40.405 18.0353 40.665 16.978 41.185 16.042C41.705 15.0887 42.4243 14.3347 43.343 13.78C44.2617 13.2253 45.319 12.948 46.515 12.948C47.2603 12.948 47.945 13.078 48.569 13.338C49.2103 13.5807 49.739 13.9273 50.155 14.378C50.5883 14.8287 50.8657 15.3487 50.987 15.938V22.49C50.8657 23.0793 50.5883 23.5993 50.155 24.05C49.739 24.5007 49.2103 24.856 48.569 25.116C47.945 25.3587 47.2603 25.48 46.515 25.48ZM47.451 21.138C47.867 21.138 48.2223 21.0427 48.517 20.852C48.8117 20.6613 49.037 20.4187 49.193 20.124C49.349 19.8293 49.427 19.5173 49.427 19.188C49.427 18.8587 49.349 18.5467 49.193 18.252C49.037 17.9573 48.8117 17.7147 48.517 17.524C48.2397 17.3333 47.893 17.238 47.477 17.238C47.0783 17.238 46.7317 17.3333 46.437 17.524C46.1423 17.7147 45.917 17.966 45.761 18.278C45.605 18.5727 45.527 18.876 45.527 19.188C45.527 19.4827 45.605 19.786 45.761 20.098C45.917 20.3927 46.1337 20.644 46.411 20.852C46.7057 21.0427 47.0523 21.138 47.451 21.138Z" fill="white"/>
<path d="M56.6497 26V6.968H61.7457V26H56.6497ZM67.9348 26L62.8907 13.208H68.2988L71.2628 24.102H69.0268L71.9388 13.208H77.3208L72.3028 26H67.9348ZM65.1528 31.46L68.8708 23.062L72.3028 26L70.1448 31.46H65.1528Z" fill="#FFB436"/>
</svg>
