<svg width="15" height="19" viewBox="0 0 15 19" fill="none" xmlns="http://www.w3.org/2000/svg">
<path d="M4.21206 18.512V14.768H7.61807C8.27673 14.768 8.8054 14.5946 9.20406 14.248C9.60273 13.884 9.80206 13.39 9.80206 12.766C9.80206 12.35 9.70673 11.9946 9.51606 11.7C9.34273 11.388 9.0914 11.154 8.76207 10.998C8.45007 10.842 8.06873 10.764 7.61807 10.764H4.21206V7.17596H7.38407C7.93873 7.17596 8.39807 7.0373 8.76207 6.75996C9.12607 6.48263 9.30807 6.0493 9.30807 5.45996C9.30807 4.87063 9.12607 4.4373 8.76207 4.15996C8.39807 3.88263 7.93873 3.74396 7.38407 3.74396H4.21206V-3.74317e-05H8.84006C9.96673 -3.74317e-05 10.9461 0.216629 11.7781 0.649962C12.6274 1.06596 13.2861 1.64663 13.7541 2.39196C14.2221 3.11996 14.4561 3.96063 14.4561 4.91396C14.4561 6.2313 13.9881 7.30596 13.0521 8.13796C12.1161 8.96996 10.7467 9.44663 8.94407 9.56796L8.89207 7.77396C10.8507 7.8953 12.3501 8.43263 13.3901 9.38596C14.4301 10.3393 14.9501 11.5613 14.9501 13.052C14.9501 14.1266 14.6814 15.08 14.1441 15.912C13.6067 16.7266 12.8527 17.368 11.8821 17.836C10.9287 18.2866 9.81073 18.512 8.52807 18.512H4.21206ZM6.45593e-05 18.512V-3.74317e-05H5.09607V18.512H6.45593e-05Z" fill="white"/>
</svg>
