<svg width="18" height="22" viewBox="0 0 18 22" fill="none" xmlns="http://www.w3.org/2000/svg">
<path fill-rule="evenodd" clip-rule="evenodd" d="M11.1734 0.641919C14.7377 0.891557 16.9362 2.85404 17.7692 6.52938C17.9506 10.0867 16.5207 12.5889 13.4797 14.0359C14.9754 16.3515 16.4821 18.6574 17.9999 20.9537C16.4785 21.0515 14.9411 21.0842 13.3874 21.0518C11.0934 17.5299 8.78721 14.0138 6.46871 10.5034C7.88317 10.4707 9.29772 10.438 10.7122 10.4053C13.1777 9.88484 13.9618 8.39659 13.0645 5.94063C12.4335 5.12738 11.6186 4.68582 10.6199 4.61595C7.91343 4.59957 5.20748 4.5505 2.502 4.46877C1.6641 3.25104 0.864572 2.00812 0.103516 0.740043C3.7778 0.642056 7.46777 0.609352 11.1734 0.641919Z" fill="#1B1D2B"/>
<path fill-rule="evenodd" clip-rule="evenodd" d="M0.103664 12.8095C1.90963 15.5062 3.69308 18.221 5.45412 20.9538C3.6559 21.0516 1.84164 21.0843 0.0114145 21.0519C-0.01912 18.2876 0.011599 15.5401 0.103664 12.8095Z" fill="#00D4FF"/>
</svg>
