<svg width="76" height="26" viewBox="0 0 76 26" fill="none" xmlns="http://www.w3.org/2000/svg">
<path d="M4.21206 19.292V15.548H7.61807C8.27673 15.548 8.8054 15.3747 9.20406 15.028C9.60273 14.664 9.80206 14.17 9.80206 13.546C9.80206 13.13 9.70673 12.7747 9.51606 12.48C9.34273 12.168 9.0914 11.934 8.76207 11.778C8.45007 11.622 8.06873 11.544 7.61807 11.544H4.21206V7.95599H7.38407C7.93873 7.95599 8.39807 7.81732 8.76207 7.53999C9.12607 7.26266 9.30807 6.82932 9.30807 6.23999C9.30807 5.65066 9.12607 5.21732 8.76207 4.93999C8.39807 4.66266 7.93873 4.52399 7.38407 4.52399H4.21206V0.779992H8.84006C9.96673 0.779992 10.9461 0.996658 11.7781 1.42999C12.6274 1.84599 13.2861 2.42666 13.7541 3.17199C14.2221 3.89999 14.4561 4.74066 14.4561 5.69399C14.4561 7.01133 13.9881 8.08599 13.0521 8.91799C12.1161 9.74999 10.7467 10.2267 8.94407 10.348L8.89207 8.55399C10.8507 8.67533 12.3501 9.21266 13.3901 10.166C14.4301 11.1193 14.9501 12.3413 14.9501 13.832C14.9501 14.9067 14.6814 15.86 14.1441 16.692C13.6067 17.5067 12.8527 18.148 11.8821 18.616C10.9287 19.0667 9.81073 19.292 8.52807 19.292H4.21206ZM6.45593e-05 19.292V0.779992H5.09607V19.292H6.45593e-05ZM16.8007 19.292V6.49999H21.8967V19.292H16.8007ZM19.3487 5.30399C18.6034 5.30399 17.9794 5.05266 17.4767 4.54999C16.9914 4.02999 16.7487 3.39733 16.7487 2.65199C16.7487 1.90666 16.9914 1.28266 17.4767 0.779992C17.9794 0.259991 18.6034 -8.9407e-06 19.3487 -8.9407e-06C20.1114 -8.9407e-06 20.7354 0.259991 21.2207 0.779992C21.7061 1.28266 21.9487 1.90666 21.9487 2.65199C21.9487 3.39733 21.7061 4.02999 21.2207 4.54999C20.7354 5.05266 20.1114 5.30399 19.3487 5.30399ZM32.455 19.292V12.116C32.455 11.6133 32.3076 11.232 32.013 10.972C31.7356 10.6947 31.3803 10.556 30.947 10.556C30.6523 10.556 30.3836 10.6167 30.141 10.738C29.9156 10.8593 29.7336 11.0413 29.595 11.284C29.4736 11.5093 29.413 11.7867 29.413 12.116L27.437 11.232C27.437 10.192 27.6623 9.29933 28.113 8.55399C28.581 7.80866 29.2136 7.23666 30.011 6.83799C30.8256 6.43932 31.7443 6.23999 32.767 6.23999C33.6856 6.23999 34.5003 6.44799 35.211 6.86399C35.939 7.26266 36.511 7.81732 36.927 8.52799C37.343 9.22133 37.551 10.0273 37.551 10.946V19.292H32.455ZM24.317 19.292V6.49999H29.413V19.292H24.317ZM45.2151 25.168C43.7764 25.168 42.5024 24.9253 41.3931 24.44C40.2837 23.972 39.4257 23.3047 38.8191 22.438L41.8351 19.448C42.2337 19.8813 42.6757 20.2193 43.1611 20.462C43.6464 20.722 44.2357 20.852 44.9291 20.852C45.7611 20.852 46.4111 20.6527 46.8791 20.254C47.3644 19.8553 47.6071 19.2747 47.6071 18.512V15.132L48.4391 12.376L47.7371 9.64599V6.49999H52.7031V18.304C52.7031 19.708 52.3737 20.9213 51.7151 21.944C51.0564 22.9667 50.1637 23.7553 49.0371 24.31C47.9104 24.882 46.6364 25.168 45.2151 25.168ZM44.9811 18.772C43.7851 18.772 42.7277 18.4947 41.8091 17.94C40.8904 17.3853 40.1711 16.6313 39.6511 15.678C39.1311 14.7247 38.8711 13.6673 38.8711 12.506C38.8711 11.3273 39.1311 10.27 39.6511 9.33399C40.1711 8.38066 40.8904 7.62666 41.8091 7.07199C42.7277 6.51732 43.7851 6.23999 44.9811 6.23999C45.7264 6.23999 46.4111 6.36999 47.0351 6.62999C47.6764 6.87266 48.2051 7.21932 48.6211 7.66999C49.0544 8.12066 49.3317 8.64066 49.4531 9.22999V15.782C49.3317 16.3713 49.0544 16.8913 48.6211 17.342C48.2051 17.7927 47.6764 18.148 47.0351 18.408C46.4111 18.6507 45.7264 18.772 44.9811 18.772ZM45.9171 14.43C46.3331 14.43 46.6884 14.3347 46.9831 14.144C47.2777 13.9533 47.5031 13.7107 47.6591 13.416C47.8151 13.1213 47.8931 12.8093 47.8931 12.48C47.8931 12.1507 47.8151 11.8387 47.6591 11.544C47.5031 11.2493 47.2777 11.0067 46.9831 10.816C46.7057 10.6253 46.3591 10.53 45.9431 10.53C45.5444 10.53 45.1977 10.6253 44.9031 10.816C44.6084 11.0067 44.3831 11.258 44.2271 11.57C44.0711 11.8647 43.9931 12.168 43.9931 12.48C43.9931 12.7747 44.0711 13.078 44.2271 13.39C44.3831 13.6847 44.5997 13.936 44.8771 14.144C45.1717 14.3347 45.5184 14.43 45.9171 14.43Z" fill="#1B1D2B"/>
<path d="M55.1158 19.292V0.259991H60.2118V19.292H55.1158ZM66.4008 19.292L61.3568 6.49999H66.7648L69.7288 17.394H67.4928L70.4048 6.49999H75.7868L70.7688 19.292H66.4008ZM63.6188 24.752L67.3368 16.354L70.7688 19.292L68.6108 24.752H63.6188Z" fill="#FFB436"/>
</svg>
