<svg width="21" height="22" viewBox="0 0 21 22" fill="none" xmlns="http://www.w3.org/2000/svg">
<path d="M17.2478 6.37802H16.2146C16.3399 5.935 16.4002 5.47396 16.3932 5.01129C16.3932 3.25277 15.0515 1.82227 13.4022 1.82227C12.0161 1.82227 11.0905 3.17259 10.4932 4.63316C9.9044 3.25277 8.93189 1.82227 7.42015 1.82227C5.77081 1.82227 4.42913 3.25277 4.42913 5.01129C4.42913 5.55434 4.49664 6.00353 4.60774 6.37802H3.57455C2.63196 6.37802 1.8654 7.19532 1.8654 8.20031V10.0226C1.8654 11.0276 2.63196 11.8449 3.57455 11.8449V18.223C3.57455 19.228 4.34111 20.0453 5.28371 20.0453H15.5386C16.4812 20.0453 17.2478 19.228 17.2478 18.223V11.8449C18.1904 11.8449 18.9569 11.0276 18.9569 10.0226V8.20031C18.9569 7.19532 18.1904 6.37802 17.2478 6.37802ZM13.4022 3.64457C14.1089 3.64457 14.684 4.25777 14.684 5.01129C14.684 6.37802 14.1491 6.37802 13.8295 6.37802H11.7118C12.1485 4.94204 12.7826 3.64457 13.4022 3.64457ZM6.13828 5.01129C6.13828 4.25777 6.71341 3.64457 7.42015 3.64457C8.17901 3.64457 8.88489 5.03407 9.2985 6.37802H6.99286C6.67325 6.37802 6.13828 6.37802 6.13828 5.01129ZM3.57455 8.20031H9.55659V10.0226H3.57455V8.20031ZM5.28371 18.223V11.8449H9.55659V18.223H5.28371ZM15.5386 18.223H11.2657V11.8449H15.5386V18.223ZM11.2657 10.0226V8.27776L11.2803 8.20031H17.2478L17.2486 10.0226H11.2657Z" fill="white"/>
</svg>
